<svg width="106" height="120" viewBox="0 0 106 120" fill="none" xmlns="http://www.w3.org/2000/svg">
<path d="M98.01 24.64L60.2799 2.23999C58.0299 0.90999 55.5099 0.23999 53 0.23999C50.49 0.23999 47.97 0.90999 45.72 2.24999L7.97995 24.65C3.47995 27.32 0.699951 32.26 0.699951 37.61V82.41C0.699951 87.76 3.46995 92.7 7.97995 95.37L45.7099 117.77C47.9599 119.11 50.47 119.77 52.99 119.77C55.5 119.77 58.0199 119.1 60.2699 117.77L98.01 95.37C102.51 92.7 105.29 87.75 105.29 82.41V37.6C105.29 32.26 102.52 27.31 98.01 24.64ZM68.79 94.59L68.85 97.81C68.85 98.2 68.6 98.64 68.3 98.8L66.39 99.9C66.09 100.05 65.83 99.87 65.83 99.48L65.8 96.31C64.17 96.99 62.5099 97.15 61.4599 96.73C61.2599 96.65 61.1699 96.36 61.25 96.02L61.94 93.11C62 92.88 62.1199 92.65 62.2799 92.51C62.34 92.45 62.3999 92.41 62.4599 92.38C62.57 92.32 62.6799 92.31 62.7699 92.35C63.9099 92.73 65.36 92.55 66.76 91.85C68.54 90.95 69.7299 89.13 69.71 87.33C69.69 85.69 68.81 85.02 66.66 85C63.92 85.01 61.36 84.47 61.32 80.43C61.29 77.11 63.01 73.65 65.75 71.47L65.72 68.22C65.72 67.82 65.96 67.38 66.27 67.22L68.12 66.04C68.42 65.89 68.68 66.08 68.68 66.47L68.71 69.72C70.07 69.18 71.25 69.03 72.32 69.28C72.55 69.34 72.66 69.66 72.56 70.03L71.84 72.91C71.78 73.13 71.66 73.35 71.51 73.49C71.4542 73.5461 71.3901 73.5934 71.32 73.63C71.22 73.68 71.13 73.69 71.04 73.68C70.55 73.57 69.39 73.32 67.56 74.24C65.64 75.21 64.97 76.88 64.98 78.12C65 79.6 65.75 80.05 68.37 80.09C71.86 80.15 73.36 81.67 73.4 85.18C73.45 88.62 71.61 92.33 68.79 94.59ZM95.13 34.09L59.43 56.14C54.9799 58.74 51.6999 61.66 51.6899 67.03V111.02C51.6899 114.23 52.99 116.31 54.98 116.92C54.33 117.03 53.66 117.11 53 117.11C50.91 117.11 48.85 116.54 47.04 115.47L9.30995 93.07C5.61995 90.88 3.32995 86.79 3.32995 82.4V37.6C3.32995 33.21 5.61995 29.12 9.30995 26.93L47.0499 4.52999C48.86 3.45999 50.92 2.88999 53.01 2.88999C55.1 2.88999 57.16 3.45999 58.97 4.52999L96.71 26.93C99.82 28.78 101.92 31.97 102.51 35.56C101.24 32.89 98.42 32.17 95.13 34.09Z" fill="#293138"/>
</svg>
