<svg width="149" height="117" viewBox="0 0 149 117" fill="none" xmlns="http://www.w3.org/2000/svg">
<path d="M123.723 14.5974C123.313 13.9977 122.747 13.521 122.086 13.2186C113.096 9.10257 103.605 6.18256 93.8559 4.5331C92.1883 4.25095 90.5234 5.04817 89.6977 6.52425C88.8405 8.05673 88.0348 9.61717 87.282 11.203C78.8507 10.1803 70.3266 10.1803 61.8953 11.203C61.1426 9.61759 60.3372 8.0574 59.4805 6.52505C58.654 5.04684 56.9862 4.2493 55.3168 4.53396C45.5638 6.19694 36.0689 9.12316 27.0718 13.2388C26.4039 13.5443 25.833 14.0278 25.4217 14.6364C7.6322 40.9563 2.76533 66.7602 5.18326 92.1325C5.29104 93.2633 5.87458 94.2951 6.78825 94.9701C17.249 102.699 28.9576 108.577 41.405 112.348C43.0198 112.838 44.7681 112.261 45.7748 110.907C48.6132 107.089 51.1247 103.04 53.2829 98.8003C53.3742 98.6209 53.4513 98.4362 53.514 98.2476C60.3762 100.063 67.4645 100.99 74.6045 100.99C81.7367 100.99 88.8174 100.065 95.6727 98.2535C95.7355 98.4432 95.8129 98.6291 95.9047 98.8096C98.0611 103.049 100.574 107.097 103.416 110.911C104.422 112.261 106.166 112.836 107.778 112.35C120.238 108.593 131.957 102.717 142.422 94.9797C143.334 94.3055 143.916 93.276 144.025 92.1473C146.863 62.7132 139.148 37.1514 123.723 14.5974Z" fill="white" stroke="white" stroke-width="8" stroke-linejoin="round"/>
<path d="M120.421 16.8555C111.749 12.885 102.593 10.0682 93.1886 8.47705C91.9017 10.7776 90.7373 13.1446 89.7002 15.5681C79.6825 14.0586 69.4952 14.0586 59.4775 15.5681C58.4399 13.1449 57.2755 10.7779 55.9891 8.47705C46.5785 10.0816 37.417 12.9051 28.7357 16.8763C11.5012 42.3751 6.82922 67.2405 9.16522 91.753C19.2582 99.2101 30.5551 104.881 42.5649 108.52C45.2691 104.883 47.662 101.025 49.7182 96.9856C45.8128 95.527 42.0433 93.7274 38.4535 91.6076C39.3983 90.9224 40.3223 90.2164 41.2152 89.5312C51.6607 94.4435 63.0615 96.9904 74.6045 96.9904C86.1474 96.9904 97.5482 94.4435 107.994 89.5312C108.897 90.2683 109.821 90.9743 110.755 91.6076C107.159 93.7308 103.382 95.5339 99.4699 96.996C101.524 101.033 103.917 104.888 106.623 108.52C118.643 104.896 129.949 99.2274 140.044 91.7634C142.785 63.3368 135.361 38.6997 120.421 16.8555ZM52.6772 76.678C46.1675 76.678 40.7895 70.7705 40.7895 63.5029C40.7895 56.2353 45.9806 50.2759 52.6564 50.2759C59.3322 50.2759 64.6687 56.2353 64.5544 63.5029C64.4402 70.7705 59.3114 76.678 52.6772 76.678ZM96.5317 76.678C90.0117 76.678 84.6545 70.7705 84.6545 63.5029C84.6545 56.2353 89.8456 50.2759 96.5317 50.2759C103.218 50.2759 108.513 56.2353 108.399 63.5029C108.284 70.7705 103.166 76.678 96.5317 76.678Z" fill="#5865F2"/>
</svg>
