<svg width="126" height="81" viewBox="0 0 126 81" fill="none" xmlns="http://www.w3.org/2000/svg">
<path d="M123.8 28.1C119.5 25.6 113.8 25.3 109 26.7C108.4 21.5 105 17 101 13.8L99.3999 12.5L97.9999 14.1C95.2999 17.2 94.4999 22.4 94.8999 26.4C95.1999 29.3 96.0999 32.3 97.8999 34.7C96.4999 35.5 94.9999 36.6 93.5999 37.1C90.7999 38.1 87.6999 39.1 84.6999 39.1H77.9999V25H64.9999V0H49.9999V12H24.9999V25H11.9999V39H0.799942L0.599942 40.5C0.0999416 46.9 0.899941 53.1 3.59994 59L4.69994 61.2L4.79994 61.4C12.6999 74.8 26.4999 80.4 41.5999 80.4C70.7999 80.4 94.8999 67.3 105.9 39.8C113.3 40.2 120.9 38 124.5 30.9L125.4 29.1L123.8 28.1ZM26.9999 15H36.9999V26H26.9999V15ZM40.0999 59.2C40.0999 60.9 38.6999 62.3 36.9999 62.3C35.2999 62.3 33.8999 60.9 33.8999 59.2C33.8999 57.5 35.2999 56.1 36.9999 56.1C38.6999 56.2 40.0999 57.5 40.0999 59.2ZM26.9999 28H36.9999V39H26.9999V28ZM13.9999 28H24.9999V39H13.9999V28ZM41.6999 78.2C25.8999 78.1 17.3999 72.8 10.3999 65.8C12.4999 65.9 14.4999 66 16.2999 66C17.8999 66 19.4999 66 20.9999 65.9C24.8999 65.7 28.2999 65.2 31.0999 64.4C33.3999 69.7 37.5999 74.6 45.0999 78.2H41.6999ZM49.9999 39H38.9999V28H49.9999V39ZM49.9999 26H38.9999V15H49.9999V26ZM62.9999 39H51.9999V28H62.9999V39ZM62.9999 26H51.9999V15H62.9999V26ZM62.9999 13H51.9999V2H62.9999V13ZM75.9999 39H64.9999V28H75.9999V39ZM37.7999 57.2C37.5999 57.1 37.2999 57 36.9999 57C35.7999 57 34.7999 58 34.7999 59.2C34.7999 60.4 35.7999 61.4 36.9999 61.4C38.1999 61.4 39.1999 60.4 39.1999 59.2C39.1999 58.9 39.0999 58.6 38.9999 58.4C38.7999 58.7 38.5999 58.9 38.1999 58.9C37.6999 58.9 37.2999 58.5 37.2999 58C37.3999 57.6 37.5999 57.3 37.7999 57.2Z" fill="#019BC6"/>
</svg>
