<svg width="128" height="128" viewBox="0 0 128 128" fill="none" xmlns="http://www.w3.org/2000/svg">
<path d="M39.5 49.2L63 35.6C63.6 35.3 64.3 35.3 64.9 35.6L88.5 49.2C89.1 49.5 89.5 50.2 89.5 50.8V78C89.5 78.7 89.1 79.3 88.5 79.7L65 93.3C64.4 93.6 63.7 93.6 63.1 93.3L39.5 79.7C38.9 79.4 38.5 78.7 38.5 78V50.8C38.5 50.2 38.9 49.5 39.5 49.2Z" fill="#8080F2"/>
<path d="M125.2 61.6L97.1 12.6C96.1 10.8 94.2 9.5 92.1 9.5H35.9C33.9 9.5 32 10.8 30.9 12.6L2.79999 61.5C1.79999 63.3 1.79999 65.5 2.79999 67.3L30.9 115.9C31.9 117.7 33.8 118.6 35.9 118.6H92.2C94.2 118.6 96.1 117.7 97.2 116L125.3 67.4C126.3 65.4 126.3 63.3 125.2 61.6ZM101.9 85.1C101.9 85.8 101.5 86.5 100.8 86.8L65 107.5C64.4 107.9 63.6 107.9 63 107.5L27.1 86.9C26.5 86.5 26 85.9 26 85.2V43.7C26 43 26.4 42.3 27.1 42L63 21.3C63.6 20.9 64.4 20.9 65 21.3L100.9 42C101.5 42.4 102 43 102 43.7V85.1H101.9Z" fill="#4B32C3"/>
</svg>
