<svg width="126" height="74" viewBox="0 0 126 74" fill="none" xmlns="http://www.w3.org/2000/svg">
<path d="M125.67 71.44C121.11 72.6 118.29 71.49 115.76 67.69C110.08 59.18 103.81 51.06 97.76 42.79C96.98 41.72 96.17 40.67 95.16 39.34C88 49 80.85 58.2 74.14 67.77C71.74 71.19 69.22 72.68 64.74 71.47L91.66 35.34L66.6 2.71001C70.91 1.87001 73.89 2.30001 76.53 6.16001C82.36 14.68 88.79 22.79 95.2 31.37C101.65 22.82 108 14.7 114 6.26C116.41 2.84 119 1.54001 123.33 2.80001C120.05 7.15001 116.84 11.43 113.61 15.68C109.25 21.41 104.97 27.21 100.45 32.82C98.84 34.82 99.1 36.12 100.54 38.01C108.9 49 117.16 60.1 125.67 71.44ZM0.330003 34.74C1.05 31.13 1.53 27.45 2.53 23.91C8.53 2.48001 33.13 -6.43 50.03 6.85C59.93 14.64 62.39 25.62 61.9 38H6.1C5.26 60.21 21.25 73.62 41.63 66.78C48.78 64.38 52.99 58.78 55.1 51.78C56.17 48.27 57.94 47.72 61.24 48.72C59.55 57.48 55.72 64.8 47.72 69.38C35.72 76.24 18.59 74.02 9.58 64.49C4.26 58.89 2 51.92 1 44.39C0.850003 43.19 0.540003 42.01 0.300003 40.82C0.320003 38.7933 0.330003 36.7667 0.330003 34.74V34.74ZM6.2 33.25H56.63C56.3 17.19 46.3 5.78001 32.63 5.68001C17.63 5.56001 6.85 16.7 6.2 33.25V33.25Z" fill="black"/>
</svg>
