<svg width="78" height="112" viewBox="0 0 78 112" fill="none" xmlns="http://www.w3.org/2000/svg">
<path d="M12.1074 72.2596C10.8874 73.028 9.74713 73.9352 8.71136 74.971C5.05448 78.6279 3.00006 83.5877 3.00006 88.7593C3.00006 93.9309 5.05448 98.8907 8.71136 102.548C12.3682 106.204 17.328 108.259 22.4997 108.259C27.6713 108.259 32.6311 106.204 36.288 102.548C39.9449 98.8907 41.9993 93.9309 41.9993 88.7593V69.8309C45.6263 73.3109 50.4622 75.2596 55.499 75.2596C60.6706 75.2596 65.6304 73.2052 69.2873 69.5483C72.9442 65.8914 74.9986 60.9316 74.9986 55.76C74.9986 50.5884 72.9442 45.6286 69.2873 41.9717C68.2515 40.9359 67.1112 40.0287 65.8912 39.2603C67.1112 38.4919 68.2515 37.5847 69.2873 36.549C72.9442 32.8921 74.9986 27.9323 74.9986 22.7607C74.9986 17.589 72.9442 12.6292 69.2873 8.97235C65.6304 5.31546 60.6706 3.26105 55.499 3.26105H22.4997C17.328 3.26105 12.3682 5.31546 8.71136 8.97235C5.05448 12.6292 3.00006 17.589 3.00006 22.7607C3.00006 27.9323 5.05448 32.8921 8.71136 36.549C9.74713 37.5847 10.8874 38.4919 12.1074 39.2603C10.8874 40.0287 9.74713 40.9359 8.71136 41.9717C5.05448 45.6286 3.00006 50.5884 3.00006 55.76C3.00006 60.9316 5.05448 65.8914 8.71136 69.5483C9.74713 70.584 10.8874 71.4913 12.1074 72.2596Z" stroke="white" stroke-width="5.99988" stroke-linejoin="round"/>
<path d="M38.9993 55.76C38.9993 51.3841 40.7377 47.1873 43.832 44.093C46.9263 40.9987 51.123 39.2604 55.499 39.2604C59.875 39.2604 64.0717 40.9987 67.166 44.093C70.2603 47.1873 71.9987 51.3841 71.9987 55.76C71.9987 60.136 70.2603 64.3328 67.166 67.4271C64.0717 70.5214 59.875 72.2597 55.499 72.2597C51.123 72.2597 46.9263 70.5214 43.832 67.4271C40.7377 64.3328 38.9993 60.136 38.9993 55.76V55.76Z" fill="#1ABCFE"/>
<path d="M6 88.7594C6 84.3834 7.73835 80.1867 10.8326 77.0924C13.9269 73.9981 18.1237 72.2598 22.4997 72.2598H38.9993V88.7594C38.9993 93.1354 37.261 97.3322 34.1667 100.426C31.0724 103.521 26.8756 105.259 22.4997 105.259C18.1237 105.259 13.9269 103.521 10.8326 100.426C7.73835 97.3322 6 93.1354 6 88.7594H6Z" fill="#0ACF83"/>
<path d="M38.9993 6.26099V39.2603H55.499C59.875 39.2603 64.0717 37.522 67.166 34.4277C70.2603 31.3334 71.9987 27.1366 71.9987 22.7607C71.9987 18.3847 70.2603 14.1879 67.166 11.0936C64.0717 7.99934 59.875 6.26099 55.499 6.26099L38.9993 6.26099Z" fill="#FF7262"/>
<path d="M6 22.7607C6 27.1366 7.73835 31.3334 10.8326 34.4277C13.9269 37.522 18.1237 39.2603 22.4997 39.2603H38.9993V6.26099H22.4997C18.1237 6.26099 13.9269 7.99934 10.8326 11.0936C7.73835 14.1879 6 18.3847 6 22.7607H6Z" fill="#F24E1E"/>
<path d="M6 55.76C6 60.136 7.73835 64.3328 10.8326 67.4271C13.9269 70.5214 18.1237 72.2597 22.4997 72.2597H38.9993V39.2604H22.4997C18.1237 39.2604 13.9269 40.9987 10.8326 44.093C7.73835 47.1873 6 51.3841 6 55.76H6Z" fill="#A259FF"/>
</svg>
