<svg width="57" height="55" viewBox="0 0 57 55" fill="none" xmlns="http://www.w3.org/2000/svg">
<path fill-rule="evenodd" clip-rule="evenodd" d="M28.1314 0C12.5888 0 0 12.5276 0 27.9946C0 40.3822 8.0526 50.8452 19.2348 54.5544C20.6414 54.7994 21.1688 53.9596 21.1688 53.2247C21.1688 52.5598 21.1337 50.3553 21.1337 48.0107C14.0657 49.3055 12.2371 46.296 11.6745 44.7213C11.358 43.9165 9.98663 41.432 8.79105 40.7671C7.80645 40.2422 6.39988 38.9475 8.75588 38.9125C10.9712 38.8775 12.5536 40.9421 13.0811 41.7819C15.6129 46.0161 19.6568 44.8263 21.2743 44.0915C21.5205 42.2718 22.2589 41.0471 23.0677 40.3472C16.8085 39.6473 10.2679 37.2328 10.2679 26.5249C10.2679 23.4805 11.358 20.9609 13.1514 19.0013C12.8701 18.3015 11.8855 15.432 13.4327 11.5828C13.4327 11.5828 15.7887 10.8479 21.1688 14.4522C23.4193 13.8223 25.8105 13.5074 28.2017 13.5074C30.5928 13.5074 32.984 13.8223 35.2345 14.4522C40.6146 10.8129 42.9706 11.5828 42.9706 11.5828C44.5179 15.432 43.5333 18.3015 43.252 19.0013C45.0453 20.9609 46.1354 23.4455 46.1354 26.5249C46.1354 37.2678 39.5597 39.6473 33.3005 40.3472C34.3203 41.222 35.1994 42.9017 35.1994 45.5262C35.1994 49.2705 35.1642 52.2799 35.1642 53.2247C35.1642 53.9596 35.6917 54.8344 37.0982 54.5544C48.2101 50.8452 56.2627 40.3472 56.2627 27.9946C56.2627 12.5276 43.6739 0 28.1314 0Z" fill="#282828"/>
</svg>
