<svg width="128" height="128" viewBox="0 0 128 128" fill="none" xmlns="http://www.w3.org/2000/svg">
<path d="M29.2 63H28C27.5 68.1 26.8 74.3 18 74.3H14C11.7 74.3 11.6 74 11.6 72.3V45.8C11.6 44.1 11.6 43.4 16.3 43.4H17.9V41.9C16 42 11.6 42 9.5 42C7.6 42 3.7 42 2 41.9V43.4H3.1C6.9 43.4 7 43.9 7 45.7V71.8C7 73.6 6.9 74.1 3.1 74.1H2V75.6H27.8L29.2 63Z" fill="black"/>
<path d="M28.3 41.8C28.1 41.2 28 41 27.4 41C26.8 41 26.6 41.2 26.4 41.8L18.4 62.1C18.1 62.9 17.5 64.5 14.4 64.5V65.7H22.1V64.5C20.6 64.5 19.6 63.8 19.6 62.8C19.6 62.6 19.6 62.5 19.7 62.1L21.4 57.8H31.3L33.3 62.9C33.4 63.1 33.5 63.3 33.5 63.5C33.5 64.5 31.6 64.5 30.7 64.5V65.7H40.5V64.5H39.8C37.5 64.5 37.2 64.2 36.9 63.2L28.3 41.8ZM26.4 45.4L30.8 56.7H21.9L26.4 45.4Z" fill="black"/>
<path d="M68.2 42.2H37.9L37 53.3H38.2C38.9 45.3 39.6 43.6 47.2 43.6C48.1 43.6 49.4 43.6 49.9 43.7C50.9 43.9 50.9 44.4 50.9 45.6V71.7C50.9 73.4 50.9 74.1 45.7 74.1H43.7V75.6C45.7 75.5 50.8 75.5 53.1 75.5C55.4 75.5 60.5 75.5 62.6 75.6V74.1H60.6C55.4 74.1 55.4 73.4 55.4 71.7V45.7C55.4 44.7 55.4 44 56.3 43.8C56.8 43.7 58.2 43.7 59.1 43.7C66.6 43.7 67.3 45.3 68 53.4H69.2L68.2 42.2Z" fill="black"/>
<path d="M94.9 74.2H93.7C92.5 81.8 91.3 85.5 82.8 85.5H76.2C73.9 85.5 73.8 85.2 73.8 83.5V70.2H78.2C83 70.2 83.6 71.8 83.6 76H84.8V62.9H83.6C83.6 67.1 83.1 68.7 78.2 68.7H73.8V56.7C73.8 55.1 73.9 54.7 76.2 54.7H82.6C90.2 54.7 91.5 57.4 92.3 64.4H93.5L92.1 53.2H64.2V54.7H65.3C69.1 54.7 69.2 55.2 69.2 57V83C69.2 84.8 69.1 85.3 65.3 85.3H64.2V87H92.8L94.9 74.2Z" fill="black"/>
<path d="M109.9 56.6L116.7 46.6C117.7 45 119.4 43.4 123.9 43.4V41.9H112V43.4C114 43.4 115.1 44.5 115.1 45.7C115.1 46.2 115 46.3 114.7 46.8L109 55.2L102.6 45.6C102.5 45.5 102.3 45.1 102.3 44.9C102.3 44.3 103.4 43.5 105.5 43.4V41.9C103.8 42 100.2 42 98.3 42C96.8 42 93.7 42 91.8 41.9V43.4H92.7C95.4 43.4 96.4 43.7 97.3 45.1L106.4 58.9L98.3 70.9C97.6 71.9 96.1 74.2 91.1 74.2V75.7H103V74.2C100.7 74.2 99.9 72.8 99.9 71.9C99.9 71.5 100 71.3 100.4 70.7L107.4 60.3L115.3 72.2C115.4 72.4 115.5 72.6 115.5 72.7C115.5 73.3 114.4 74.1 112.3 74.2V75.7C114 75.6 117.7 75.6 119.5 75.6C121.6 75.6 123.9 75.6 126 75.7V74.2H125.1C122.5 74.2 121.5 74 120.4 72.4L109.9 56.6Z" fill="black"/>
</svg>
