<svg width="221" height="223" viewBox="0 0 221 223" fill="none" xmlns="http://www.w3.org/2000/svg">
<g filter="url(#filter0_d_160_131)">
<rect x="19" y="19.7239" width="183" height="184" rx="10" fill="#282828" shape-rendering="crispEdges"/>
<rect x="19" y="19.7239" width="183" height="184" rx="10" fill="url(#paint0_radial_160_131)" shape-rendering="crispEdges"/>
<path d="M82.656 108.724V86.3239H87.84V104.5H99.072V108.724H82.656ZM108.818 108.98C107.389 108.98 106.109 108.703 104.978 108.148C103.869 107.593 103.005 106.751 102.386 105.62C101.767 104.468 101.458 103.007 101.458 101.236V91.5079H106.45V100.5C106.45 101.929 106.749 102.985 107.346 103.668C107.965 104.329 108.829 104.66 109.938 104.66C110.706 104.66 111.389 104.5 111.986 104.18C112.583 103.839 113.053 103.327 113.394 102.644C113.735 101.94 113.906 101.065 113.906 100.02V91.5079H118.898V108.724H114.162V103.988L115.026 105.364C114.45 106.559 113.597 107.465 112.466 108.084C111.357 108.681 110.141 108.98 108.818 108.98ZM134.083 108.724V105.364L133.763 104.628V98.6119C133.763 97.5452 133.432 96.7132 132.771 96.1159C132.131 95.5185 131.139 95.2199 129.795 95.2199C128.877 95.2199 127.971 95.3692 127.075 95.6679C126.2 95.9452 125.453 96.3292 124.835 96.8199L123.043 93.3319C123.981 92.6705 125.112 92.1585 126.435 91.7959C127.757 91.4332 129.101 91.2519 130.467 91.2519C133.091 91.2519 135.128 91.8705 136.579 93.1079C138.029 94.3452 138.755 96.2759 138.755 98.8999V108.724H134.083ZM128.835 108.98C127.491 108.98 126.339 108.756 125.379 108.308C124.419 107.839 123.683 107.209 123.171 106.42C122.659 105.631 122.403 104.745 122.403 103.764C122.403 102.74 122.648 101.844 123.139 101.076C123.651 100.308 124.451 99.7105 125.539 99.2839C126.627 98.8359 128.045 98.6119 129.795 98.6119H134.371V101.524H130.339C129.165 101.524 128.355 101.716 127.907 102.1C127.48 102.484 127.267 102.964 127.267 103.54C127.267 104.18 127.512 104.692 128.003 105.076C128.515 105.439 129.208 105.62 130.083 105.62C130.915 105.62 131.661 105.428 132.323 105.044C132.984 104.639 133.464 104.052 133.763 103.284L134.531 105.588C134.168 106.697 133.507 107.54 132.547 108.116C131.587 108.692 130.349 108.98 128.835 108.98Z" fill="white"/>
<path d="M43.952 131.804C43.032 131.804 42.3086 131.541 41.782 131.014C41.2553 130.487 40.992 129.717 40.992 128.704V124.724H41.992V128.664C41.992 129.444 42.162 130.014 42.502 130.374C42.8486 130.734 43.3353 130.914 43.962 130.914C44.5953 130.914 45.082 130.734 45.422 130.374C45.7686 130.014 45.942 129.444 45.942 128.664V124.724H46.912V128.704C46.912 129.717 46.6486 130.487 46.122 131.014C45.602 131.541 44.8786 131.804 43.952 131.804ZM51.6521 126.374C52.0854 126.374 52.4654 126.457 52.7921 126.624C53.1254 126.791 53.3854 127.044 53.5721 127.384C53.7588 127.724 53.8521 128.154 53.8521 128.674V131.724H52.8921V128.784C52.8921 128.271 52.7654 127.884 52.5121 127.624C52.2654 127.364 51.9154 127.234 51.4621 127.234C51.1221 127.234 50.8254 127.301 50.5721 127.434C50.3188 127.567 50.1221 127.764 49.9821 128.024C49.8488 128.284 49.7821 128.607 49.7821 128.994V131.724H48.8221V126.424H49.7421V127.854L49.5921 127.474C49.7654 127.127 50.0321 126.857 50.3921 126.664C50.7521 126.471 51.1721 126.374 51.6521 126.374ZM59.8343 131.784C59.3943 131.784 58.9743 131.724 58.5743 131.604C58.181 131.484 57.871 131.337 57.6443 131.164L58.0443 130.404C58.271 130.557 58.551 130.687 58.8843 130.794C59.2176 130.901 59.5576 130.954 59.9043 130.954C60.351 130.954 60.671 130.891 60.8643 130.764C61.0643 130.637 61.1643 130.461 61.1643 130.234C61.1643 130.067 61.1043 129.937 60.9843 129.844C60.8643 129.751 60.7043 129.681 60.5043 129.634C60.311 129.587 60.0943 129.547 59.8543 129.514C59.6143 129.474 59.3743 129.427 59.1343 129.374C58.8943 129.314 58.6743 129.234 58.4743 129.134C58.2743 129.027 58.1143 128.884 57.9943 128.704C57.8743 128.517 57.8143 128.271 57.8143 127.964C57.8143 127.644 57.9043 127.364 58.0843 127.124C58.2643 126.884 58.5176 126.701 58.8443 126.574C59.1776 126.441 59.571 126.374 60.0243 126.374C60.371 126.374 60.721 126.417 61.0743 126.504C61.4343 126.584 61.7276 126.701 61.9543 126.854L61.5443 127.614C61.3043 127.454 61.0543 127.344 60.7943 127.284C60.5343 127.224 60.2743 127.194 60.0143 127.194C59.5943 127.194 59.281 127.264 59.0743 127.404C58.8676 127.537 58.7643 127.711 58.7643 127.924C58.7643 128.104 58.8243 128.244 58.9443 128.344C59.071 128.437 59.231 128.511 59.4243 128.564C59.6243 128.617 59.8443 128.664 60.0843 128.704C60.3243 128.737 60.5643 128.784 60.8043 128.844C61.0443 128.897 61.261 128.974 61.4543 129.074C61.6543 129.174 61.8143 129.314 61.9343 129.494C62.061 129.674 62.1243 129.914 62.1243 130.214C62.1243 130.534 62.031 130.811 61.8443 131.044C61.6576 131.277 61.3943 131.461 61.0543 131.594C60.7143 131.721 60.3076 131.784 59.8343 131.784ZM63.3241 131.724V126.424H64.2841V131.724H63.3241ZM63.8041 125.404C63.6174 125.404 63.4607 125.344 63.3341 125.224C63.2141 125.104 63.1541 124.957 63.1541 124.784C63.1541 124.604 63.2141 124.454 63.3341 124.334C63.4607 124.214 63.6174 124.154 63.8041 124.154C63.9907 124.154 64.1441 124.214 64.2641 124.334C64.3907 124.447 64.4541 124.591 64.4541 124.764C64.4541 124.944 64.3941 125.097 64.2741 125.224C64.1541 125.344 63.9974 125.404 63.8041 125.404ZM67.637 131.784C67.197 131.784 66.777 131.724 66.377 131.604C65.9837 131.484 65.6737 131.337 65.447 131.164L65.847 130.404C66.0737 130.557 66.3537 130.687 66.687 130.794C67.0204 130.901 67.3604 130.954 67.707 130.954C68.1537 130.954 68.4737 130.891 68.667 130.764C68.867 130.637 68.967 130.461 68.967 130.234C68.967 130.067 68.907 129.937 68.787 129.844C68.667 129.751 68.507 129.681 68.307 129.634C68.1137 129.587 67.897 129.547 67.657 129.514C67.417 129.474 67.177 129.427 66.937 129.374C66.697 129.314 66.477 129.234 66.277 129.134C66.077 129.027 65.917 128.884 65.797 128.704C65.677 128.517 65.617 128.271 65.617 127.964C65.617 127.644 65.707 127.364 65.887 127.124C66.067 126.884 66.3204 126.701 66.647 126.574C66.9804 126.441 67.3737 126.374 67.827 126.374C68.1737 126.374 68.5237 126.417 68.877 126.504C69.237 126.584 69.5304 126.701 69.757 126.854L69.347 127.614C69.107 127.454 68.857 127.344 68.597 127.284C68.337 127.224 68.077 127.194 67.817 127.194C67.397 127.194 67.0837 127.264 66.877 127.404C66.6704 127.537 66.567 127.711 66.567 127.924C66.567 128.104 66.627 128.244 66.747 128.344C66.8737 128.437 67.0337 128.511 67.227 128.564C67.427 128.617 67.647 128.664 67.887 128.704C68.127 128.737 68.367 128.784 68.607 128.844C68.847 128.897 69.0637 128.974 69.257 129.074C69.457 129.174 69.617 129.314 69.737 129.494C69.8637 129.674 69.927 129.914 69.927 130.214C69.927 130.534 69.8337 130.811 69.647 131.044C69.4604 131.277 69.197 131.461 68.857 131.594C68.517 131.721 68.1104 131.784 67.637 131.784ZM72.9468 131.784C72.4135 131.784 72.0001 131.641 71.7068 131.354C71.4135 131.067 71.2668 130.657 71.2668 130.124V125.264H72.2268V130.084C72.2268 130.371 72.2968 130.591 72.4368 130.744C72.5835 130.897 72.7901 130.974 73.0568 130.974C73.3568 130.974 73.6068 130.891 73.8068 130.724L74.1068 131.414C73.9601 131.541 73.7835 131.634 73.5768 131.694C73.3768 131.754 73.1668 131.784 72.9468 131.784ZM70.3668 127.214V126.424H73.7468V127.214H70.3668ZM77.4516 131.784C76.885 131.784 76.385 131.667 75.9516 131.434C75.525 131.201 75.1916 130.881 74.9516 130.474C74.7183 130.067 74.6016 129.601 74.6016 129.074C74.6016 128.547 74.715 128.081 74.9416 127.674C75.175 127.267 75.4916 126.951 75.8916 126.724C76.2983 126.491 76.755 126.374 77.2616 126.374C77.775 126.374 78.2283 126.487 78.6216 126.714C79.015 126.941 79.3216 127.261 79.5416 127.674C79.7683 128.081 79.8816 128.557 79.8816 129.104C79.8816 129.144 79.8783 129.191 79.8716 129.244C79.8716 129.297 79.8683 129.347 79.8616 129.394H75.3516V128.704H79.3616L78.9716 128.944C78.9783 128.604 78.9083 128.301 78.7616 128.034C78.615 127.767 78.4116 127.561 78.1516 127.414C77.8983 127.261 77.6016 127.184 77.2616 127.184C76.9283 127.184 76.6316 127.261 76.3716 127.414C76.1116 127.561 75.9083 127.771 75.7616 128.044C75.615 128.311 75.5416 128.617 75.5416 128.964V129.124C75.5416 129.477 75.6216 129.794 75.7816 130.074C75.9483 130.347 76.1783 130.561 76.4716 130.714C76.765 130.867 77.1016 130.944 77.4816 130.944C77.795 130.944 78.0783 130.891 78.3316 130.784C78.5916 130.677 78.8183 130.517 79.0116 130.304L79.5416 130.924C79.3016 131.204 79.0016 131.417 78.6416 131.564C78.2883 131.711 77.8916 131.784 77.4516 131.784ZM87.8447 126.374C88.2714 126.374 88.648 126.457 88.9747 126.624C89.3014 126.791 89.5547 127.044 89.7347 127.384C89.9214 127.724 90.0147 128.154 90.0147 128.674V131.724H89.0547V128.784C89.0547 128.271 88.9347 127.884 88.6947 127.624C88.4547 127.364 88.118 127.234 87.6847 127.234C87.3647 127.234 87.0847 127.301 86.8447 127.434C86.6047 127.567 86.418 127.764 86.2847 128.024C86.158 128.284 86.0947 128.607 86.0947 128.994V131.724H85.1347V128.784C85.1347 128.271 85.0147 127.884 84.7747 127.624C84.5414 127.364 84.2047 127.234 83.7647 127.234C83.4514 127.234 83.1747 127.301 82.9347 127.434C82.6947 127.567 82.508 127.764 82.3747 128.024C82.2414 128.284 82.1747 128.607 82.1747 128.994V131.724H81.2147V126.424H82.1347V127.834L81.9847 127.474C82.1514 127.127 82.408 126.857 82.7547 126.664C83.1014 126.471 83.5047 126.374 83.9647 126.374C84.4714 126.374 84.908 126.501 85.2747 126.754C85.6414 127.001 85.8814 127.377 85.9947 127.884L85.6047 127.724C85.7647 127.317 86.0447 126.991 86.4447 126.744C86.8447 126.497 87.3114 126.374 87.8447 126.374ZM95.0711 131.724V130.604L95.0211 130.394V128.484C95.0211 128.077 94.9011 127.764 94.6611 127.544C94.4278 127.317 94.0744 127.204 93.6011 127.204C93.2878 127.204 92.9811 127.257 92.6811 127.364C92.3811 127.464 92.1278 127.601 91.9211 127.774L91.5211 127.054C91.7944 126.834 92.1211 126.667 92.5011 126.554C92.8878 126.434 93.2911 126.374 93.7111 126.374C94.4378 126.374 94.9978 126.551 95.3911 126.904C95.7844 127.257 95.9811 127.797 95.9811 128.524V131.724H95.0711ZM93.3311 131.784C92.9378 131.784 92.5911 131.717 92.2911 131.584C91.9978 131.451 91.7711 131.267 91.6111 131.034C91.4511 130.794 91.3711 130.524 91.3711 130.224C91.3711 129.937 91.4378 129.677 91.5711 129.444C91.7111 129.211 91.9344 129.024 92.2411 128.884C92.5544 128.744 92.9744 128.674 93.5011 128.674H95.1811V129.364H93.5411C93.0611 129.364 92.7378 129.444 92.5711 129.604C92.4044 129.764 92.3211 129.957 92.3211 130.184C92.3211 130.444 92.4244 130.654 92.6311 130.814C92.8378 130.967 93.1244 131.044 93.4911 131.044C93.8511 131.044 94.1644 130.964 94.4311 130.804C94.7044 130.644 94.9011 130.411 95.0211 130.104L95.2111 130.764C95.0844 131.077 94.8611 131.327 94.5411 131.514C94.2211 131.694 93.8178 131.784 93.3311 131.784ZM102.633 131.784C102.12 131.784 101.66 131.671 101.253 131.444C100.853 131.217 100.537 130.901 100.303 130.494C100.07 130.087 99.9532 129.614 99.9532 129.074C99.9532 128.534 100.07 128.064 100.303 127.664C100.537 127.257 100.853 126.941 101.253 126.714C101.66 126.487 102.12 126.374 102.633 126.374C103.08 126.374 103.483 126.474 103.843 126.674C104.203 126.874 104.49 127.174 104.703 127.574C104.923 127.974 105.033 128.474 105.033 129.074C105.033 129.674 104.927 130.174 104.713 130.574C104.507 130.974 104.223 131.277 103.863 131.484C103.503 131.684 103.093 131.784 102.633 131.784ZM102.713 130.944C103.047 130.944 103.347 130.867 103.613 130.714C103.887 130.561 104.1 130.344 104.253 130.064C104.413 129.777 104.493 129.447 104.493 129.074C104.493 128.694 104.413 128.367 104.253 128.094C104.1 127.814 103.887 127.597 103.613 127.444C103.347 127.291 103.047 127.214 102.713 127.214C102.373 127.214 102.07 127.291 101.803 127.444C101.537 127.597 101.323 127.814 101.163 128.094C101.003 128.367 100.923 128.694 100.923 129.074C100.923 129.447 101.003 129.777 101.163 130.064C101.323 130.344 101.537 130.561 101.803 130.714C102.07 130.867 102.373 130.944 102.713 130.944ZM104.523 131.724V130.294L104.583 129.064L104.483 127.834V124.304H105.443V131.724H104.523ZM109.62 131.784C109.053 131.784 108.553 131.667 108.12 131.434C107.693 131.201 107.36 130.881 107.12 130.474C106.886 130.067 106.77 129.601 106.77 129.074C106.77 128.547 106.883 128.081 107.11 127.674C107.343 127.267 107.66 126.951 108.06 126.724C108.466 126.491 108.923 126.374 109.43 126.374C109.943 126.374 110.396 126.487 110.79 126.714C111.183 126.941 111.49 127.261 111.71 127.674C111.936 128.081 112.05 128.557 112.05 129.104C112.05 129.144 112.046 129.191 112.04 129.244C112.04 129.297 112.036 129.347 112.03 129.394H107.52V128.704H111.53L111.14 128.944C111.146 128.604 111.076 128.301 110.93 128.034C110.783 127.767 110.58 127.561 110.32 127.414C110.066 127.261 109.77 127.184 109.43 127.184C109.096 127.184 108.8 127.261 108.54 127.414C108.28 127.561 108.076 127.771 107.93 128.044C107.783 128.311 107.71 128.617 107.71 128.964V129.124C107.71 129.477 107.79 129.794 107.95 130.074C108.116 130.347 108.346 130.561 108.64 130.714C108.933 130.867 109.27 130.944 109.65 130.944C109.963 130.944 110.246 130.891 110.5 130.784C110.76 130.677 110.986 130.517 111.18 130.304L111.71 130.924C111.47 131.204 111.17 131.417 110.81 131.564C110.456 131.711 110.06 131.784 109.62 131.784ZM118.388 133.724C117.902 133.724 117.428 133.654 116.968 133.514C116.515 133.381 116.145 133.187 115.858 132.934L116.318 132.194C116.565 132.407 116.868 132.574 117.228 132.694C117.588 132.821 117.965 132.884 118.358 132.884C118.985 132.884 119.445 132.737 119.738 132.444C120.032 132.151 120.178 131.704 120.178 131.104V129.984L120.278 128.934L120.228 127.874V126.424H121.138V131.004C121.138 131.937 120.905 132.624 120.438 133.064C119.972 133.504 119.288 133.724 118.388 133.724ZM118.268 131.504C117.755 131.504 117.295 131.397 116.888 131.184C116.488 130.964 116.168 130.661 115.928 130.274C115.695 129.887 115.578 129.441 115.578 128.934C115.578 128.421 115.695 127.974 115.928 127.594C116.168 127.207 116.488 126.907 116.888 126.694C117.295 126.481 117.755 126.374 118.268 126.374C118.722 126.374 119.135 126.467 119.508 126.654C119.882 126.834 120.178 127.114 120.398 127.494C120.625 127.874 120.738 128.354 120.738 128.934C120.738 129.507 120.625 129.984 120.398 130.364C120.178 130.744 119.882 131.031 119.508 131.224C119.135 131.411 118.722 131.504 118.268 131.504ZM118.378 130.664C118.732 130.664 119.045 130.591 119.318 130.444C119.592 130.297 119.805 130.094 119.958 129.834C120.118 129.574 120.198 129.274 120.198 128.934C120.198 128.594 120.118 128.294 119.958 128.034C119.805 127.774 119.592 127.574 119.318 127.434C119.045 127.287 118.732 127.214 118.378 127.214C118.025 127.214 117.708 127.287 117.428 127.434C117.155 127.574 116.938 127.774 116.778 128.034C116.625 128.294 116.548 128.594 116.548 128.934C116.548 129.274 116.625 129.574 116.778 129.834C116.938 130.094 117.155 130.297 117.428 130.444C117.708 130.591 118.025 130.664 118.378 130.664ZM126.263 131.724V130.604L126.213 130.394V128.484C126.213 128.077 126.093 127.764 125.853 127.544C125.619 127.317 125.266 127.204 124.793 127.204C124.479 127.204 124.173 127.257 123.873 127.364C123.573 127.464 123.319 127.601 123.113 127.774L122.713 127.054C122.986 126.834 123.313 126.667 123.693 126.554C124.079 126.434 124.483 126.374 124.903 126.374C125.629 126.374 126.189 126.551 126.583 126.904C126.976 127.257 127.173 127.797 127.173 128.524V131.724H126.263ZM124.523 131.784C124.129 131.784 123.783 131.717 123.483 131.584C123.189 131.451 122.963 131.267 122.803 131.034C122.643 130.794 122.563 130.524 122.563 130.224C122.563 129.937 122.629 129.677 122.763 129.444C122.903 129.211 123.126 129.024 123.433 128.884C123.746 128.744 124.166 128.674 124.693 128.674H126.373V129.364H124.733C124.253 129.364 123.929 129.444 123.763 129.604C123.596 129.764 123.513 129.957 123.513 130.184C123.513 130.444 123.616 130.654 123.823 130.814C124.029 130.967 124.316 131.044 124.683 131.044C125.043 131.044 125.356 130.964 125.623 130.804C125.896 130.644 126.093 130.411 126.213 130.104L126.403 130.764C126.276 131.077 126.053 131.327 125.733 131.514C125.413 131.694 125.009 131.784 124.523 131.784ZM135.579 126.374C136.006 126.374 136.382 126.457 136.709 126.624C137.036 126.791 137.289 127.044 137.469 127.384C137.656 127.724 137.749 128.154 137.749 128.674V131.724H136.789V128.784C136.789 128.271 136.669 127.884 136.429 127.624C136.189 127.364 135.852 127.234 135.419 127.234C135.099 127.234 134.819 127.301 134.579 127.434C134.339 127.567 134.152 127.764 134.019 128.024C133.892 128.284 133.829 128.607 133.829 128.994V131.724H132.869V128.784C132.869 128.271 132.749 127.884 132.509 127.624C132.276 127.364 131.939 127.234 131.499 127.234C131.186 127.234 130.909 127.301 130.669 127.434C130.429 127.567 130.242 127.764 130.109 128.024C129.976 128.284 129.909 128.607 129.909 128.994V131.724H128.949V126.424H129.869V127.834L129.719 127.474C129.886 127.127 130.142 126.857 130.489 126.664C130.836 126.471 131.239 126.374 131.699 126.374C132.206 126.374 132.642 126.501 133.009 126.754C133.376 127.001 133.616 127.377 133.729 127.884L133.339 127.724C133.499 127.317 133.779 126.991 134.179 126.744C134.579 126.497 135.046 126.374 135.579 126.374ZM139.515 131.724V126.424H140.475V131.724H139.515ZM139.995 125.404C139.809 125.404 139.652 125.344 139.525 125.224C139.405 125.104 139.345 124.957 139.345 124.784C139.345 124.604 139.405 124.454 139.525 124.334C139.652 124.214 139.809 124.154 139.995 124.154C140.182 124.154 140.335 124.214 140.455 124.334C140.582 124.447 140.645 124.591 140.645 124.764C140.645 124.944 140.585 125.097 140.465 125.224C140.345 125.344 140.189 125.404 139.995 125.404ZM142.448 131.724V125.954C142.448 125.434 142.598 125.021 142.898 124.714C143.205 124.401 143.638 124.244 144.198 124.244C144.405 124.244 144.602 124.271 144.788 124.324C144.982 124.371 145.145 124.447 145.278 124.554L144.988 125.284C144.888 125.204 144.775 125.144 144.648 125.104C144.522 125.057 144.388 125.034 144.248 125.034C143.968 125.034 143.755 125.114 143.608 125.274C143.462 125.427 143.388 125.657 143.388 125.964V126.674L143.408 127.114V131.724H142.448ZM141.548 127.214V126.424H144.928V127.214H141.548ZM145.838 131.724V126.424H146.798V131.724H145.838ZM146.318 125.404C146.132 125.404 145.975 125.344 145.848 125.224C145.728 125.104 145.668 124.957 145.668 124.784C145.668 124.604 145.728 124.454 145.848 124.334C145.975 124.214 146.132 124.154 146.318 124.154C146.505 124.154 146.658 124.214 146.778 124.334C146.905 124.447 146.968 124.591 146.968 124.764C146.968 124.944 146.908 125.097 146.788 125.224C146.668 125.344 146.512 125.404 146.318 125.404ZM150.937 131.784C150.397 131.784 149.913 131.667 149.487 131.434C149.067 131.201 148.737 130.881 148.497 130.474C148.257 130.067 148.137 129.601 148.137 129.074C148.137 128.547 148.257 128.081 148.497 127.674C148.737 127.267 149.067 126.951 149.487 126.724C149.913 126.491 150.397 126.374 150.937 126.374C151.417 126.374 151.843 126.471 152.217 126.664C152.597 126.851 152.89 127.131 153.097 127.504L152.367 127.974C152.193 127.714 151.98 127.524 151.727 127.404C151.48 127.277 151.213 127.214 150.927 127.214C150.58 127.214 150.27 127.291 149.997 127.444C149.723 127.597 149.507 127.814 149.347 128.094C149.187 128.367 149.107 128.694 149.107 129.074C149.107 129.454 149.187 129.784 149.347 130.064C149.507 130.344 149.723 130.561 149.997 130.714C150.27 130.867 150.58 130.944 150.927 130.944C151.213 130.944 151.48 130.884 151.727 130.764C151.98 130.637 152.193 130.444 152.367 130.184L153.097 130.644C152.89 131.011 152.597 131.294 152.217 131.494C151.843 131.687 151.417 131.784 150.937 131.784ZM157.63 131.724V130.604L157.58 130.394V128.484C157.58 128.077 157.46 127.764 157.22 127.544C156.986 127.317 156.633 127.204 156.16 127.204C155.846 127.204 155.54 127.257 155.24 127.364C154.94 127.464 154.686 127.601 154.48 127.774L154.08 127.054C154.353 126.834 154.68 126.667 155.06 126.554C155.446 126.434 155.85 126.374 156.27 126.374C156.996 126.374 157.556 126.551 157.95 126.904C158.343 127.257 158.54 127.797 158.54 128.524V131.724H157.63ZM155.89 131.784C155.496 131.784 155.15 131.717 154.85 131.584C154.556 131.451 154.33 131.267 154.17 131.034C154.01 130.794 153.93 130.524 153.93 130.224C153.93 129.937 153.996 129.677 154.13 129.444C154.27 129.211 154.493 129.024 154.8 128.884C155.113 128.744 155.533 128.674 156.06 128.674H157.74V129.364H156.1C155.62 129.364 155.296 129.444 155.13 129.604C154.963 129.764 154.88 129.957 154.88 130.184C154.88 130.444 154.983 130.654 155.19 130.814C155.396 130.967 155.683 131.044 156.05 131.044C156.41 131.044 156.723 130.964 156.99 130.804C157.263 130.644 157.46 130.411 157.58 130.104L157.77 130.764C157.643 131.077 157.42 131.327 157.1 131.514C156.78 131.694 156.376 131.784 155.89 131.784ZM162.626 131.784C162.086 131.784 161.603 131.667 161.176 131.434C160.756 131.201 160.426 130.881 160.186 130.474C159.946 130.067 159.826 129.601 159.826 129.074C159.826 128.547 159.946 128.081 160.186 127.674C160.426 127.267 160.756 126.951 161.176 126.724C161.603 126.491 162.086 126.374 162.626 126.374C163.106 126.374 163.533 126.471 163.906 126.664C164.286 126.851 164.58 127.131 164.786 127.504L164.056 127.974C163.883 127.714 163.67 127.524 163.416 127.404C163.17 127.277 162.903 127.214 162.616 127.214C162.27 127.214 161.96 127.291 161.686 127.444C161.413 127.597 161.196 127.814 161.036 128.094C160.876 128.367 160.796 128.694 160.796 129.074C160.796 129.454 160.876 129.784 161.036 130.064C161.196 130.344 161.413 130.561 161.686 130.714C161.96 130.867 162.27 130.944 162.616 130.944C162.903 130.944 163.17 130.884 163.416 130.764C163.67 130.637 163.883 130.444 164.056 130.184L164.786 130.644C164.58 131.011 164.286 131.294 163.906 131.494C163.533 131.687 163.106 131.784 162.626 131.784ZM165.961 131.724V126.424H166.921V131.724H165.961ZM166.441 125.404C166.254 125.404 166.097 125.344 165.971 125.224C165.851 125.104 165.791 124.957 165.791 124.784C165.791 124.604 165.851 124.454 165.971 124.334C166.097 124.214 166.254 124.154 166.441 124.154C166.627 124.154 166.781 124.214 166.901 124.334C167.027 124.447 167.091 124.591 167.091 124.764C167.091 124.944 167.031 125.097 166.911 125.224C166.791 125.344 166.634 125.404 166.441 125.404ZM171.024 131.784C170.49 131.784 170.017 131.667 169.604 131.434C169.19 131.201 168.864 130.881 168.624 130.474C168.384 130.061 168.264 129.594 168.264 129.074C168.264 128.547 168.384 128.081 168.624 127.674C168.864 127.267 169.19 126.951 169.604 126.724C170.017 126.491 170.49 126.374 171.024 126.374C171.55 126.374 172.02 126.491 172.434 126.724C172.854 126.951 173.18 127.267 173.414 127.674C173.654 128.074 173.774 128.541 173.774 129.074C173.774 129.601 173.654 130.067 173.414 130.474C173.18 130.881 172.854 131.201 172.434 131.434C172.02 131.667 171.55 131.784 171.024 131.784ZM171.024 130.944C171.364 130.944 171.667 130.867 171.934 130.714C172.207 130.561 172.42 130.344 172.574 130.064C172.727 129.777 172.804 129.447 172.804 129.074C172.804 128.694 172.727 128.367 172.574 128.094C172.42 127.814 172.207 127.597 171.934 127.444C171.667 127.291 171.364 127.214 171.024 127.214C170.684 127.214 170.38 127.291 170.114 127.444C169.847 127.597 169.634 127.814 169.474 128.094C169.314 128.367 169.234 128.694 169.234 129.074C169.234 129.447 169.314 129.777 169.474 130.064C169.634 130.344 169.847 130.561 170.114 130.714C170.38 130.867 170.684 130.944 171.024 130.944ZM170.264 125.654L171.624 124.354H172.844L171.164 125.654H170.264ZM177.931 126.374C178.365 126.374 178.745 126.457 179.071 126.624C179.405 126.791 179.665 127.044 179.851 127.384C180.038 127.724 180.131 128.154 180.131 128.674V131.724H179.171V128.784C179.171 128.271 179.045 127.884 178.791 127.624C178.545 127.364 178.195 127.234 177.741 127.234C177.401 127.234 177.105 127.301 176.851 127.434C176.598 127.567 176.401 127.764 176.261 128.024C176.128 128.284 176.061 128.607 176.061 128.994V131.724H175.101V126.424H176.021V127.854L175.871 127.474C176.045 127.127 176.311 126.857 176.671 126.664C177.031 126.471 177.451 126.374 177.931 126.374ZM65.636 143.784C65.196 143.784 64.7927 143.684 64.426 143.484C64.066 143.277 63.776 142.974 63.556 142.574C63.3427 142.174 63.236 141.674 63.236 141.074C63.236 140.474 63.3393 139.974 63.546 139.574C63.7593 139.174 64.046 138.874 64.406 138.674C64.7727 138.474 65.1827 138.374 65.636 138.374C66.156 138.374 66.616 138.487 67.016 138.714C67.416 138.941 67.7327 139.257 67.966 139.664C68.1993 140.064 68.316 140.534 68.316 141.074C68.316 141.614 68.1993 142.087 67.966 142.494C67.7327 142.901 67.416 143.217 67.016 143.444C66.616 143.671 66.156 143.784 65.636 143.784ZM62.826 145.664V138.424H63.746V139.854L63.686 141.084L63.786 142.314V145.664H62.826ZM65.556 142.944C65.896 142.944 66.1993 142.867 66.466 142.714C66.7393 142.561 66.9527 142.344 67.106 142.064C67.266 141.777 67.346 141.447 67.346 141.074C67.346 140.694 67.266 140.367 67.106 140.094C66.9527 139.814 66.7393 139.597 66.466 139.444C66.1993 139.291 65.896 139.214 65.556 139.214C65.2227 139.214 64.9193 139.291 64.646 139.444C64.3793 139.597 64.166 139.814 64.006 140.094C63.8527 140.367 63.776 140.694 63.776 141.074C63.776 141.447 63.8527 141.777 64.006 142.064C64.166 142.344 64.3793 142.561 64.646 142.714C64.9193 142.867 65.2227 142.944 65.556 142.944ZM72.8836 143.724V142.604L72.8336 142.394V140.484C72.8336 140.077 72.7136 139.764 72.4736 139.544C72.2403 139.317 71.8869 139.204 71.4136 139.204C71.1003 139.204 70.7936 139.257 70.4936 139.364C70.1936 139.464 69.9403 139.601 69.7336 139.774L69.3336 139.054C69.6069 138.834 69.9336 138.667 70.3136 138.554C70.7003 138.434 71.1036 138.374 71.5236 138.374C72.2503 138.374 72.8103 138.551 73.2036 138.904C73.5969 139.257 73.7936 139.797 73.7936 140.524V143.724H72.8836ZM71.1436 143.784C70.7503 143.784 70.4036 143.717 70.1036 143.584C69.8103 143.451 69.5836 143.267 69.4236 143.034C69.2636 142.794 69.1836 142.524 69.1836 142.224C69.1836 141.937 69.2503 141.677 69.3836 141.444C69.5236 141.211 69.7469 141.024 70.0536 140.884C70.3669 140.744 70.7869 140.674 71.3136 140.674H72.9936V141.364H71.3536C70.8736 141.364 70.5503 141.444 70.3836 141.604C70.2169 141.764 70.1336 141.957 70.1336 142.184C70.1336 142.444 70.2369 142.654 70.4436 142.814C70.6503 142.967 70.9369 143.044 71.3036 143.044C71.6636 143.044 71.9769 142.964 72.2436 142.804C72.5169 142.644 72.7136 142.411 72.8336 142.104L73.0236 142.764C72.8969 143.077 72.6736 143.327 72.3536 143.514C72.0336 143.694 71.6303 143.784 71.1436 143.784ZM75.5702 143.724V138.424H76.4902V139.864L76.4002 139.504C76.5468 139.137 76.7935 138.857 77.1402 138.664C77.4868 138.471 77.9135 138.374 78.4202 138.374V139.304C78.3802 139.297 78.3402 139.294 78.3002 139.294C78.2668 139.294 78.2335 139.294 78.2002 139.294C77.6868 139.294 77.2802 139.447 76.9802 139.754C76.6802 140.061 76.5302 140.504 76.5302 141.084V143.724H75.5702ZM82.5027 143.724V142.604L82.4527 142.394V140.484C82.4527 140.077 82.3327 139.764 82.0927 139.544C81.8594 139.317 81.5061 139.204 81.0327 139.204C80.7194 139.204 80.4127 139.257 80.1127 139.364C79.8127 139.464 79.5594 139.601 79.3527 139.774L78.9527 139.054C79.2261 138.834 79.5527 138.667 79.9327 138.554C80.3194 138.434 80.7227 138.374 81.1427 138.374C81.8694 138.374 82.4294 138.551 82.8227 138.904C83.2161 139.257 83.4127 139.797 83.4127 140.524V143.724H82.5027ZM80.7627 143.784C80.3694 143.784 80.0227 143.717 79.7227 143.584C79.4294 143.451 79.2027 143.267 79.0427 143.034C78.8827 142.794 78.8027 142.524 78.8027 142.224C78.8027 141.937 78.8694 141.677 79.0027 141.444C79.1427 141.211 79.3661 141.024 79.6727 140.884C79.9861 140.744 80.4061 140.674 80.9327 140.674H82.6127V141.364H80.9727C80.4927 141.364 80.1694 141.444 80.0027 141.604C79.8361 141.764 79.7527 141.957 79.7527 142.184C79.7527 142.444 79.8561 142.654 80.0627 142.814C80.2694 142.967 80.5561 143.044 80.9227 143.044C81.2827 143.044 81.5961 142.964 81.8627 142.804C82.1361 142.644 82.3327 142.411 82.4527 142.104L82.6427 142.764C82.5161 143.077 82.2927 143.327 81.9727 143.514C81.6527 143.694 81.2494 143.784 80.7627 143.784ZM89.6948 143.784C89.1615 143.784 88.7482 143.641 88.4548 143.354C88.1615 143.067 88.0148 142.657 88.0148 142.124V137.264H88.9748V142.084C88.9748 142.371 89.0448 142.591 89.1848 142.744C89.3315 142.897 89.5382 142.974 89.8048 142.974C90.1048 142.974 90.3548 142.891 90.5548 142.724L90.8548 143.414C90.7082 143.541 90.5315 143.634 90.3248 143.694C90.1248 143.754 89.9148 143.784 89.6948 143.784ZM87.1148 139.214V138.424H90.4948V139.214H87.1148ZM94.2455 143.784C93.7921 143.784 93.3921 143.701 93.0455 143.534C92.7055 143.367 92.4388 143.114 92.2455 142.774C92.0588 142.427 91.9655 141.994 91.9655 141.474V138.424H92.9255V141.364C92.9255 141.884 93.0488 142.274 93.2955 142.534C93.5488 142.794 93.9021 142.924 94.3555 142.924C94.6888 142.924 94.9788 142.857 95.2255 142.724C95.4721 142.584 95.6621 142.384 95.7955 142.124C95.9288 141.857 95.9955 141.537 95.9955 141.164V138.424H96.9555V143.724H96.0455V142.294L96.1955 142.674C96.0221 143.027 95.7621 143.301 95.4155 143.494C95.0688 143.687 94.6788 143.784 94.2455 143.784ZM103.779 143.784C103.239 143.784 102.755 143.667 102.329 143.434C101.909 143.201 101.579 142.881 101.339 142.474C101.099 142.067 100.979 141.601 100.979 141.074C100.979 140.547 101.099 140.081 101.339 139.674C101.579 139.267 101.909 138.951 102.329 138.724C102.755 138.491 103.239 138.374 103.779 138.374C104.259 138.374 104.685 138.471 105.059 138.664C105.439 138.851 105.732 139.131 105.939 139.504L105.209 139.974C105.035 139.714 104.822 139.524 104.569 139.404C104.322 139.277 104.055 139.214 103.769 139.214C103.422 139.214 103.112 139.291 102.839 139.444C102.565 139.597 102.349 139.814 102.189 140.094C102.029 140.367 101.949 140.694 101.949 141.074C101.949 141.454 102.029 141.784 102.189 142.064C102.349 142.344 102.565 142.561 102.839 142.714C103.112 142.867 103.422 142.944 103.769 142.944C104.055 142.944 104.322 142.884 104.569 142.764C104.822 142.637 105.035 142.444 105.209 142.184L105.939 142.644C105.732 143.011 105.439 143.294 105.059 143.494C104.685 143.687 104.259 143.784 103.779 143.784ZM109.373 143.784C108.84 143.784 108.367 143.667 107.953 143.434C107.54 143.201 107.213 142.881 106.973 142.474C106.733 142.061 106.613 141.594 106.613 141.074C106.613 140.547 106.733 140.081 106.973 139.674C107.213 139.267 107.54 138.951 107.953 138.724C108.367 138.491 108.84 138.374 109.373 138.374C109.9 138.374 110.37 138.491 110.783 138.724C111.203 138.951 111.53 139.267 111.763 139.674C112.003 140.074 112.123 140.541 112.123 141.074C112.123 141.601 112.003 142.067 111.763 142.474C111.53 142.881 111.203 143.201 110.783 143.434C110.37 143.667 109.9 143.784 109.373 143.784ZM109.373 142.944C109.713 142.944 110.017 142.867 110.283 142.714C110.557 142.561 110.77 142.344 110.923 142.064C111.077 141.777 111.153 141.447 111.153 141.074C111.153 140.694 111.077 140.367 110.923 140.094C110.77 139.814 110.557 139.597 110.283 139.444C110.017 139.291 109.713 139.214 109.373 139.214C109.033 139.214 108.73 139.291 108.463 139.444C108.197 139.597 107.983 139.814 107.823 140.094C107.663 140.367 107.583 140.694 107.583 141.074C107.583 141.447 107.663 141.777 107.823 142.064C107.983 142.344 108.197 142.561 108.463 142.714C108.73 142.867 109.033 142.944 109.373 142.944ZM120.081 138.374C120.508 138.374 120.884 138.457 121.211 138.624C121.538 138.791 121.791 139.044 121.971 139.384C122.158 139.724 122.251 140.154 122.251 140.674V143.724H121.291V140.784C121.291 140.271 121.171 139.884 120.931 139.624C120.691 139.364 120.354 139.234 119.921 139.234C119.601 139.234 119.321 139.301 119.081 139.434C118.841 139.567 118.654 139.764 118.521 140.024C118.394 140.284 118.331 140.607 118.331 140.994V143.724H117.371V140.784C117.371 140.271 117.251 139.884 117.011 139.624C116.778 139.364 116.441 139.234 116.001 139.234C115.688 139.234 115.411 139.301 115.171 139.434C114.931 139.567 114.744 139.764 114.611 140.024C114.478 140.284 114.411 140.607 114.411 140.994V143.724H113.451V138.424H114.371V139.834L114.221 139.474C114.388 139.127 114.644 138.857 114.991 138.664C115.338 138.471 115.741 138.374 116.201 138.374C116.708 138.374 117.144 138.501 117.511 138.754C117.878 139.001 118.118 139.377 118.231 139.884L117.841 139.724C118.001 139.317 118.281 138.991 118.681 138.744C119.081 138.497 119.548 138.374 120.081 138.374ZM126.247 143.784C125.794 143.784 125.394 143.701 125.047 143.534C124.707 143.367 124.441 143.114 124.247 142.774C124.061 142.427 123.967 141.994 123.967 141.474V138.424H124.927V141.364C124.927 141.884 125.051 142.274 125.297 142.534C125.551 142.794 125.904 142.924 126.357 142.924C126.691 142.924 126.981 142.857 127.227 142.724C127.474 142.584 127.664 142.384 127.797 142.124C127.931 141.857 127.997 141.537 127.997 141.164V138.424H128.957V143.724H128.047V142.294L128.197 142.674C128.024 143.027 127.764 143.301 127.417 143.494C127.071 143.687 126.681 143.784 126.247 143.784ZM133.615 138.374C134.048 138.374 134.428 138.457 134.755 138.624C135.088 138.791 135.348 139.044 135.535 139.384C135.722 139.724 135.815 140.154 135.815 140.674V143.724H134.855V140.784C134.855 140.271 134.728 139.884 134.475 139.624C134.228 139.364 133.878 139.234 133.425 139.234C133.085 139.234 132.788 139.301 132.535 139.434C132.282 139.567 132.085 139.764 131.945 140.024C131.812 140.284 131.745 140.607 131.745 140.994V143.724H130.785V138.424H131.705V139.854L131.555 139.474C131.728 139.127 131.995 138.857 132.355 138.664C132.715 138.471 133.135 138.374 133.615 138.374ZM137.592 143.724V138.424H138.552V143.724H137.592ZM138.072 137.404C137.885 137.404 137.728 137.344 137.602 137.224C137.482 137.104 137.422 136.957 137.422 136.784C137.422 136.604 137.482 136.454 137.602 136.334C137.728 136.214 137.885 136.154 138.072 136.154C138.258 136.154 138.412 136.214 138.532 136.334C138.658 136.447 138.722 136.591 138.722 136.764C138.722 136.944 138.662 137.097 138.542 137.224C138.422 137.344 138.265 137.404 138.072 137.404ZM142.575 143.784C142.061 143.784 141.601 143.671 141.195 143.444C140.795 143.217 140.478 142.901 140.245 142.494C140.011 142.087 139.895 141.614 139.895 141.074C139.895 140.534 140.011 140.064 140.245 139.664C140.478 139.257 140.795 138.941 141.195 138.714C141.601 138.487 142.061 138.374 142.575 138.374C143.021 138.374 143.425 138.474 143.785 138.674C144.145 138.874 144.431 139.174 144.645 139.574C144.865 139.974 144.975 140.474 144.975 141.074C144.975 141.674 144.868 142.174 144.655 142.574C144.448 142.974 144.165 143.277 143.805 143.484C143.445 143.684 143.035 143.784 142.575 143.784ZM142.655 142.944C142.988 142.944 143.288 142.867 143.555 142.714C143.828 142.561 144.041 142.344 144.195 142.064C144.355 141.777 144.435 141.447 144.435 141.074C144.435 140.694 144.355 140.367 144.195 140.094C144.041 139.814 143.828 139.597 143.555 139.444C143.288 139.291 142.988 139.214 142.655 139.214C142.315 139.214 142.011 139.291 141.745 139.444C141.478 139.597 141.265 139.814 141.105 140.094C140.945 140.367 140.865 140.694 140.865 141.074C140.865 141.447 140.945 141.777 141.105 142.064C141.265 142.344 141.478 142.561 141.745 142.714C142.011 142.867 142.315 142.944 142.655 142.944ZM144.465 143.724V142.294L144.525 141.064L144.425 139.834V136.304H145.385V143.724H144.465ZM150.491 143.724V142.604L150.441 142.394V140.484C150.441 140.077 150.321 139.764 150.081 139.544C149.848 139.317 149.494 139.204 149.021 139.204C148.708 139.204 148.401 139.257 148.101 139.364C147.801 139.464 147.548 139.601 147.341 139.774L146.941 139.054C147.214 138.834 147.541 138.667 147.921 138.554C148.308 138.434 148.711 138.374 149.131 138.374C149.858 138.374 150.418 138.551 150.811 138.904C151.204 139.257 151.401 139.797 151.401 140.524V143.724H150.491ZM148.751 143.784C148.358 143.784 148.011 143.717 147.711 143.584C147.418 143.451 147.191 143.267 147.031 143.034C146.871 142.794 146.791 142.524 146.791 142.224C146.791 141.937 146.858 141.677 146.991 141.444C147.131 141.211 147.354 141.024 147.661 140.884C147.974 140.744 148.394 140.674 148.921 140.674H150.601V141.364H148.961C148.481 141.364 148.158 141.444 147.991 141.604C147.824 141.764 147.741 141.957 147.741 142.184C147.741 142.444 147.844 142.654 148.051 142.814C148.258 142.967 148.544 143.044 148.911 143.044C149.271 143.044 149.584 142.964 149.851 142.804C150.124 142.644 150.321 142.411 150.441 142.104L150.631 142.764C150.504 143.077 150.281 143.327 149.961 143.514C149.641 143.694 149.238 143.784 148.751 143.784ZM155.368 143.784C154.854 143.784 154.394 143.671 153.988 143.444C153.588 143.217 153.271 142.901 153.038 142.494C152.804 142.087 152.688 141.614 152.688 141.074C152.688 140.534 152.804 140.064 153.038 139.664C153.271 139.257 153.588 138.941 153.988 138.714C154.394 138.487 154.854 138.374 155.368 138.374C155.814 138.374 156.218 138.474 156.578 138.674C156.938 138.874 157.224 139.174 157.438 139.574C157.658 139.974 157.768 140.474 157.768 141.074C157.768 141.674 157.661 142.174 157.448 142.574C157.241 142.974 156.958 143.277 156.598 143.484C156.238 143.684 155.828 143.784 155.368 143.784ZM155.448 142.944C155.781 142.944 156.081 142.867 156.348 142.714C156.621 142.561 156.834 142.344 156.988 142.064C157.148 141.777 157.228 141.447 157.228 141.074C157.228 140.694 157.148 140.367 156.988 140.094C156.834 139.814 156.621 139.597 156.348 139.444C156.081 139.291 155.781 139.214 155.448 139.214C155.108 139.214 154.804 139.291 154.538 139.444C154.271 139.597 154.058 139.814 153.898 140.094C153.738 140.367 153.658 140.694 153.658 141.074C153.658 141.447 153.738 141.777 153.898 142.064C154.058 142.344 154.271 142.561 154.538 142.714C154.804 142.867 155.108 142.944 155.448 142.944ZM157.258 143.724V142.294L157.318 141.064L157.218 139.834V136.304H158.178V143.724H157.258Z" fill="white"/>
</g>
<defs>
<filter id="filter0_d_160_131" x="0" y="0.723877" width="221" height="222" filterUnits="userSpaceOnUse" color-interpolation-filters="sRGB">
<feFlood flood-opacity="0" result="BackgroundImageFix"/>
<feColorMatrix in="SourceAlpha" type="matrix" values="0 0 0 0 0 0 0 0 0 0 0 0 0 0 0 0 0 0 127 0" result="hardAlpha"/>
<feMorphology radius="2" operator="erode" in="SourceAlpha" result="effect1_dropShadow_160_131"/>
<feOffset/>
<feGaussianBlur stdDeviation="10.5"/>
<feComposite in2="hardAlpha" operator="out"/>
<feColorMatrix type="matrix" values="0 0 0 0 0 0 0 0 0 0 0 0 0 0 0 0 0 0 0.25 0"/>
<feBlend mode="normal" in2="BackgroundImageFix" result="effect1_dropShadow_160_131"/>
<feBlend mode="normal" in="SourceGraphic" in2="effect1_dropShadow_160_131" result="shape"/>
</filter>
<radialGradient id="paint0_radial_160_131" cx="0" cy="0" r="1" gradientUnits="userSpaceOnUse" gradientTransform="translate(110.5 111.724) rotate(90) scale(92 91.5)">
<stop stop-color="#7943EC"/>
<stop offset="1" stop-color="#815CD0" stop-opacity="0"/>
</radialGradient>
</defs>
</svg>
