<svg width="59" height="44" viewBox="0 0 59 44" fill="none" xmlns="http://www.w3.org/2000/svg">
<path d="M3.97049 43.6863H13.235V21.1869L0 11.2607V39.7159C0 41.9129 1.7801 43.6863 3.97049 43.6863Z" fill="#282828"/>
<path d="M44.9988 43.6863H54.2633C56.4603 43.6863 58.2338 41.9062 58.2338 39.7159V11.2607L44.9988 21.1869" fill="#282828"/>
<path d="M44.9988 3.98175V21.1869L58.2338 11.2607V5.96699C58.2338 1.05683 52.6288 -1.74237 48.7046 1.20241" fill="#282828"/>
<path d="M13.235 21.1869L13.235 3.98147L29.1169 15.8929L44.9988 3.98175V21.1869L29.1169 33.0984" fill="#282828"/>
<path d="M0 5.96699V11.2607L13.235 21.1869L13.235 3.98147L9.52917 1.20241C5.59839 -1.74237 0 1.05683 0 5.96699Z" fill="#282828"/>
</svg>
