<svg width="54" height="120" viewBox="0 0 54 120" fill="none" xmlns="http://www.w3.org/2000/svg">
<path fill-rule="evenodd" clip-rule="evenodd" d="M53.4911 53.282C53.1211 48.492 51.9951 43.873 50.4291 39.348C47.1851 29.244 41.9791 20.302 34.6461 12.608C32.7921 10.662 30.7301 8.87899 29.4371 6.45699C28.6191 4.92499 27.8401 3.37199 27.0431 1.82799L26.5381 0.554993C26.4531 0.846993 26.3991 0.950993 26.3961 1.05599C26.3311 3.57299 24.9051 5.27999 23.1291 6.87299C21.1321 8.66599 19.2731 10.612 17.3541 12.491L11.4531 20.254C9.8611 23.179 8.2711 26.104 6.6811 29.029L3.4911 37.646L3.3951 37.78C1.6391 43.548 0.773101 49.478 0.347101 55.468C0.187101 57.719 0.369099 60.003 0.496099 62.266C0.677099 65.501 1.2391 68.681 2.0821 71.811C5.1441 83.183 11.3581 92.616 19.8531 100.63C21.4321 102.119 23.0521 103.473 24.7001 104.89C24.9821 103.925 25.2071 102.96 25.4631 101.995C25.7191 101.034 25.9781 100.078 26.1511 99.114C25.9771 100.078 25.7821 101.034 25.5891 101.995L24.7631 104.89L25.5011 107.391L26.1851 111.275L26.5111 115.328C26.5081 116.151 26.4751 116.976 26.5251 117.798C26.5371 118.008 26.8131 118.202 26.9671 118.404L28.3431 118.887L29.7771 119.445L29.5311 115.842L29.5201 112.294L30.0151 106.889L30.3741 105.712L31.4011 103.892C32.6691 102.872 34.0301 101.946 35.1851 100.811C37.2751 98.757 39.3601 96.677 41.2301 94.428C43.6641 91.5129 45.7424 88.3185 47.4211 84.912C48.5431 82.628 49.5991 80.298 50.4731 77.911C51.2431 75.807 51.7201 73.596 52.3271 71.432C52.3811 71.276 52.4531 71.123 52.4871 70.964C53.7411 65.123 53.9521 59.223 53.4911 53.282ZM29.8921 102.657L29.0871 100.894L29.8921 102.657L31.0751 103.667L29.8921 102.657Z" fill="#4FAA41"/>
</svg>
