<svg width="71" height="73" viewBox="0 0 71 73" fill="none" xmlns="http://www.w3.org/2000/svg">
<g filter="url(#filter0_d_186_138)">
<circle cx="34.5406" cy="35.1156" r="32.0274" fill="#252525"/>
<g filter="url(#filter1_i_186_138)">
<path d="M68.5634 38.9346C66.6536 56.078 52.1139 69.408 34.4609 69.408C16.8006 69.408 2.25615 56.0656 0.356012 38.9119C0.268607 38.1228 0.89923 37.4494 1.69312 37.4497L67.2272 37.4716C68.0211 37.4718 68.6513 38.1456 68.5634 38.9346Z" fill="#F8F8F8"/>
</g>
<path d="M34.4609 68.7225C51.7608 68.7225 66.0105 55.6589 67.8821 38.8587C67.9226 38.4948 67.6318 38.1572 67.227 38.157L1.69289 38.1351C1.28811 38.135 0.997026 38.4725 1.03734 38.8364C2.89944 55.6468 17.1539 68.7225 34.4609 68.7225Z" stroke="#252525" stroke-width="1.37098"/>
<g filter="url(#filter2_i_186_138)">
<path d="M68.643 31.3655C66.7332 14.222 52.1935 0.89209 34.5405 0.89209C16.8802 0.89209 2.33574 14.2344 0.435602 31.3882C0.348197 32.1773 0.97882 32.8507 1.77271 32.8504L67.3068 32.8285C68.1007 32.8282 68.7309 32.1545 68.643 31.3655Z" fill="#FF4C41"/>
</g>
<path d="M34.5405 1.57758C51.8404 1.57758 66.0901 14.6411 67.9617 31.4414C68.0022 31.8052 67.7114 32.1429 67.3066 32.143L1.77248 32.1649C1.3677 32.165 1.07662 31.8276 1.11692 31.4637C2.97903 14.6533 17.2335 1.57758 34.5405 1.57758Z" stroke="#252525" stroke-width="1.37098"/>
<circle cx="34.5406" cy="35.1157" r="12.5822" fill="#252525"/>
<circle cx="34.5407" cy="35.1157" r="8.00686" fill="#F8F8F8"/>
<g filter="url(#filter3_d_186_138)">
<circle cx="34.5406" cy="35.1157" r="5.71918" fill="#F8F8F8"/>
<circle cx="34.5406" cy="35.1157" r="5.03369" stroke="#252525" stroke-width="1.37098"/>
</g>
<path d="M12.6703 18.622C12.6703 18.622 19.8456 12.779 23.6447 8.43829C24.5057 7.45455 25.4606 6.61212 25.7831 5.87405C26.3698 4.53159 22.941 5.63173 21.4356 6.23682C15.7453 8.52393 10.1273 13.4432 8.48338 18.7419C8.03493 20.1874 8.12256 21.4331 9.27429 21.337C10.0625 21.2713 12.6703 18.622 12.6703 18.622Z" fill="white" fill-opacity="0.8"/>
<path d="M5.62904 23.6377C5.383 24.3916 5.4224 25.3703 6.1841 25.5911C6.93456 25.8087 7.70596 24.2923 7.70596 24.2923C7.70596 24.2923 8.35564 22.6386 7.65401 22.3256C7.12139 22.0879 5.92906 22.7184 5.62904 23.6377Z" fill="white" fill-opacity="0.8"/>
<path d="M4.42581 27.2165C4.44264 27.5398 4.52515 27.8018 4.81329 27.9494C5.30263 28.2002 5.74116 27.4234 5.72187 26.8738C5.71153 26.5795 5.66522 26.3521 5.4261 26.1802C4.96935 25.852 4.39657 26.6548 4.42581 27.2165Z" fill="white" fill-opacity="0.8"/>
</g>
<defs>
<filter id="filter0_d_186_138" x="0.3479" y="0.89209" width="70.0169" height="71.9433" filterUnits="userSpaceOnUse" color-interpolation-filters="sRGB">
<feFlood flood-opacity="0" result="BackgroundImageFix"/>
<feColorMatrix in="SourceAlpha" type="matrix" values="0 0 0 0 0 0 0 0 0 0 0 0 0 0 0 0 0 0 127 0" result="hardAlpha"/>
<feOffset dx="1.71373" dy="3.42745"/>
<feColorMatrix type="matrix" values="0 0 0 0 0 0 0 0 0 0 0 0 0 0 0 0 0 0 0.25 0"/>
<feBlend mode="normal" in2="BackgroundImageFix" result="effect1_dropShadow_186_138"/>
<feBlend mode="normal" in="SourceGraphic" in2="effect1_dropShadow_186_138" result="shape"/>
</filter>
<filter id="filter1_i_186_138" x="0.3479" y="37.4497" width="68.2236" height="31.9583" filterUnits="userSpaceOnUse" color-interpolation-filters="sRGB">
<feFlood flood-opacity="0" result="BackgroundImageFix"/>
<feBlend mode="normal" in="SourceGraphic" in2="BackgroundImageFix" result="shape"/>
<feColorMatrix in="SourceAlpha" type="matrix" values="0 0 0 0 0 0 0 0 0 0 0 0 0 0 0 0 0 0 127 0" result="hardAlpha"/>
<feOffset dx="-10.2824" dy="-3.42745"/>
<feComposite in2="hardAlpha" operator="arithmetic" k2="-1" k3="1"/>
<feColorMatrix type="matrix" values="0 0 0 0 0 0 0 0 0 0 0 0 0 0 0 0 0 0 0.25 0"/>
<feBlend mode="normal" in2="shape" result="effect1_innerShadow_186_138"/>
</filter>
<filter id="filter2_i_186_138" x="0.42749" y="0.89209" width="68.2236" height="31.9583" filterUnits="userSpaceOnUse" color-interpolation-filters="sRGB">
<feFlood flood-opacity="0" result="BackgroundImageFix"/>
<feBlend mode="normal" in="SourceGraphic" in2="BackgroundImageFix" result="shape"/>
<feColorMatrix in="SourceAlpha" type="matrix" values="0 0 0 0 0 0 0 0 0 0 0 0 0 0 0 0 0 0 127 0" result="hardAlpha"/>
<feOffset dx="-10.2824" dy="-1.71373"/>
<feComposite in2="hardAlpha" operator="arithmetic" k2="-1" k3="1"/>
<feColorMatrix type="matrix" values="0 0 0 0 0 0 0 0 0 0 0 0 0 0 0 0 0 0 0.25 0"/>
<feBlend mode="normal" in2="shape" result="effect1_innerShadow_186_138"/>
</filter>
<filter id="filter3_d_186_138" x="28.8214" y="29.3965" width="12.1238" height="12.124" filterUnits="userSpaceOnUse" color-interpolation-filters="sRGB">
<feFlood flood-opacity="0" result="BackgroundImageFix"/>
<feColorMatrix in="SourceAlpha" type="matrix" values="0 0 0 0 0 0 0 0 0 0 0 0 0 0 0 0 0 0 127 0" result="hardAlpha"/>
<feOffset dx="0.68549" dy="0.68549"/>
<feColorMatrix type="matrix" values="0 0 0 0 0 0 0 0 0 0 0 0 0 0 0 0 0 0 0.25 0"/>
<feBlend mode="normal" in2="BackgroundImageFix" result="effect1_dropShadow_186_138"/>
<feBlend mode="normal" in="SourceGraphic" in2="effect1_dropShadow_186_138" result="shape"/>
</filter>
</defs>
</svg>
