<svg width="98" height="98" viewBox="0 0 98 98" fill="none" xmlns="http://www.w3.org/2000/svg">
<circle cx="48.7971" cy="48.8674" r="22.0899" fill="#5772FF"/>
<path d="M45.707 81.5361L44.0914 93.378L41.8365 93.0704L43.4521 81.2284L45.707 81.5361ZM45.4246 91.8414L45.1945 93.5285L41.8365 93.0704L42.0667 91.3833L45.4246 91.8414Z" fill="#282828"/>
<path d="M35.3064 78.2067C36.0198 78.5361 36.5965 78.9406 37.0362 79.4202C37.476 79.8998 37.7949 80.4198 37.993 80.9801C38.1866 81.5503 38.268 82.129 38.2374 82.7159C38.1969 83.2983 38.0531 83.8571 37.806 84.3922L37.6619 84.7043C37.4056 85.2593 37.064 85.7387 36.6371 86.1427C36.1956 86.5519 35.6974 86.8629 35.1424 87.0755C34.5729 87.2934 33.9653 87.3855 33.3196 87.3518C32.6693 87.3281 32.0023 87.1584 31.3186 86.8426C30.6349 86.5269 30.0731 86.1292 29.6333 85.6497C29.189 85.18 28.8701 84.66 28.6765 84.0898C28.4685 83.5249 28.3821 82.944 28.4173 82.3471C28.4479 81.7601 28.5913 81.1891 28.8475 80.6342L28.9917 80.3221C29.2388 79.787 29.5758 79.3174 30.0028 78.9135C30.4198 78.505 30.9082 78.1895 31.4678 77.967C32.0228 77.7544 32.6254 77.66 33.2756 77.6837C33.9259 77.7075 34.6028 77.8818 35.3064 78.2067ZM34.4896 79.9755C33.9842 79.7421 33.5078 79.6544 33.0603 79.7122C32.6082 79.78 32.2061 79.9609 31.8538 80.2551C31.497 80.5592 31.2065 80.9541 30.9823 81.4396C30.7535 81.9351 30.6463 82.4146 30.6607 82.8781C30.6606 83.3469 30.7886 83.7727 31.0447 84.1554C31.2862 84.5435 31.6498 84.8496 32.1354 85.0738C32.6209 85.298 33.0947 85.3785 33.5567 85.3153C34.0042 85.2575 34.4113 85.0788 34.778 84.7793C35.1402 84.4897 35.4356 84.0971 35.6644 83.6017C35.8886 83.1161 36.0008 82.6389 36.0009 82.1701C35.9865 81.7066 35.8585 81.2808 35.6169 80.8927C35.3707 80.5146 34.995 80.2088 34.4896 79.9755Z" fill="#282828"/>
<path d="M25.6 70.9818C26.1415 71.5513 26.5281 72.14 26.7598 72.7481C26.9915 73.3561 27.0961 73.9571 27.0734 74.5509C27.0428 75.1524 26.9049 75.7202 26.6599 76.2544C26.4073 76.7808 26.0674 77.247 25.6403 77.6532L25.3911 77.8901C24.9482 78.3112 24.4537 78.6308 23.9078 78.8486C23.3465 79.0661 22.7687 79.1712 22.1744 79.1639C21.5647 79.1563 20.966 79.0177 20.3783 78.7481C19.7827 78.486 19.2254 78.0821 18.7065 77.5363C18.1875 76.9905 17.8122 76.4136 17.5805 75.8056C17.3408 75.2051 17.2363 74.6041 17.2669 74.0027C17.2821 73.4009 17.4161 72.8291 17.6691 72.2874C17.9142 71.7531 18.2582 71.2754 18.7012 70.8542L18.9503 70.6173C19.3775 70.2112 19.864 69.8992 20.4099 69.6813C20.9483 69.4556 21.5186 69.3426 22.1208 69.3423C22.7151 69.3495 23.31 69.4842 23.9056 69.7463C24.5012 70.0083 25.066 70.4202 25.6 70.9818ZM24.188 72.3243C23.8045 71.9209 23.3941 71.6635 22.9568 71.5521C22.5116 71.4482 22.0711 71.468 21.6351 71.6114C21.1913 71.7624 20.7755 72.0221 20.388 72.3906C19.9925 72.7667 19.7159 73.1727 19.5582 73.6088C19.3851 74.0445 19.3469 74.4875 19.4436 74.9377C19.525 75.3875 19.7499 75.8062 20.1184 76.1938C20.4869 76.5814 20.8975 76.8311 21.3502 76.9429C21.7875 77.0542 22.2318 77.0384 22.6832 76.8954C23.1267 76.7599 23.5461 76.5041 23.9416 76.128C24.3292 75.7595 24.6096 75.3574 24.7827 74.9217C24.9403 74.4856 24.9785 74.0427 24.8972 73.5928C24.808 73.1505 24.5716 72.7277 24.188 72.3243Z" fill="#282828"/>
<path d="M18.2005 58.9849L15.4923 63.3252L15.9979 64.5512L10.1818 62.8591L9.2766 60.6645L14.6474 62.2215L13.5692 62.613L17.2204 56.6087L18.2005 58.9849ZM20.5727 64.7363L9.52397 69.2935L8.65623 67.1897L19.705 62.6325L20.5727 64.7363Z" fill="#282828"/>
<path d="M16.3504 46.64L7.77251 44.3048L8.24557 42.5671L11.9263 43.5692L11.8833 43.7271C11.0197 43.492 10.3284 43.1851 9.80941 42.8062C9.27986 42.4245 8.92642 41.9776 8.74908 41.4655C8.56409 40.9401 8.56047 40.3509 8.73823 39.6979L8.76403 39.6031C8.94466 38.9396 9.24645 38.4336 9.66941 38.0849C10.0847 37.7229 10.6159 37.5168 11.263 37.4668C11.9025 37.4033 12.654 37.4891 13.5175 37.7242L13.367 38.2771C12.5034 38.042 11.8121 37.735 11.2931 37.3562C10.7664 36.9639 10.4144 36.5118 10.2371 35.9997C10.0521 35.4742 10.0485 34.885 10.2262 34.2321L10.252 34.1373C10.4327 33.4738 10.7359 32.9625 11.1617 32.6033C11.577 32.2413 12.1097 32.0299 12.7596 31.9693C13.4019 31.8953 14.1549 31.9759 15.0185 32.211L19.9156 33.5442L19.3178 35.74L14.2153 34.3509C13.6782 34.2047 13.2144 34.2254 12.8239 34.4133C12.4229 34.5982 12.1536 34.9434 12.016 35.4489C11.8783 35.9544 11.9365 36.4058 12.1903 36.8029C12.4337 37.1972 12.8344 37.4703 13.3926 37.6223L18.4319 38.9942L17.8341 41.19L12.7316 39.8009C12.1945 39.6547 11.7307 39.6755 11.3402 39.8633C10.9392 40.0482 10.6699 40.3935 10.5323 40.899C10.3946 41.4045 10.4528 41.8558 10.7066 42.253C10.9499 42.6473 11.3507 42.9204 11.9089 43.0723L16.9482 44.4442L16.3504 46.64Z" fill="#282828"/>
<path d="M25.4298 27.6501C24.9141 28.2431 24.3646 28.6837 23.7812 28.9719C23.1979 29.2602 22.6095 29.4211 22.0161 29.4547C21.4145 29.4812 20.8362 29.3977 20.2811 29.2043C19.7333 29.0027 19.2369 28.7085 18.7922 28.3217L18.5328 28.0961C18.0716 27.695 17.7067 27.233 17.4381 26.7102C17.1685 26.1719 17.0092 25.6067 16.9602 25.0144C16.91 24.4067 16.9914 23.7975 17.2041 23.187C17.4086 22.5693 17.758 21.9763 18.2522 21.408C18.7464 20.8397 19.2852 20.4114 19.8686 20.1232C20.4437 19.8278 21.0321 19.6669 21.6337 19.6404C22.2342 19.5985 22.8161 19.6779 23.3794 19.8784C23.9344 20.0718 24.4426 20.3691 24.9038 20.7702L25.1632 20.9958C25.608 21.3826 25.9646 21.8374 26.2332 22.3602C26.5089 22.8748 26.6754 23.4319 26.7326 24.0313C26.7816 24.6237 26.7039 25.2287 26.4994 25.8464C26.2949 26.4641 25.9384 27.0653 25.4298 27.6501ZM23.9597 26.3716C24.325 25.9515 24.5424 25.5186 24.6119 25.0728C24.6731 24.6198 24.6118 24.1831 24.4277 23.7626C24.2354 23.3351 23.9375 22.9458 23.534 22.5948C23.1222 22.2367 22.6917 21.9998 22.2427 21.8841C21.7925 21.753 21.348 21.7569 20.9089 21.8959C20.4688 22.0194 20.0733 22.2829 19.7223 22.6865C19.3714 23.09 19.1617 23.5224 19.0932 23.9837C19.0237 24.4295 19.0816 24.8703 19.2667 25.3062C19.4435 25.7348 19.7379 26.1282 20.1497 26.4863C20.5532 26.8373 20.9801 27.0783 21.4302 27.2094C21.8793 27.3251 22.3239 27.3212 22.764 27.1977C23.1958 27.067 23.5944 26.7916 23.9597 26.3716Z" fill="#282828"/>
<path d="M31.2842 22.1052L26.8514 14.3991L28.4125 13.5011L30.2901 16.7652L30.2475 16.7897C29.6108 15.6827 29.3657 14.7094 29.5122 13.8696C29.6587 13.0298 30.1909 12.346 31.1086 11.8181L31.3924 11.6548L32.3802 13.372L31.8409 13.6822C31.1786 14.0632 30.7664 14.5395 30.6042 15.1113C30.4461 15.6682 30.5602 16.2825 30.9466 16.9542L33.2568 20.9705L31.2842 22.1052Z" fill="#282828"/>
<path d="M43.5781 17.5436C42.8277 17.6871 42.1438 17.6846 41.5264 17.536C40.9197 17.3853 40.3877 17.1315 39.9305 16.7744C39.4819 16.4046 39.1099 15.9702 38.8144 15.4711C38.5296 14.9699 38.3339 14.4406 38.2273 13.8831L38.1688 13.5776C38.0581 12.9987 38.0426 12.4238 38.1223 11.8529C38.2107 11.2693 38.3972 10.7335 38.6817 10.2457C38.9749 9.74513 39.3712 9.31926 39.8708 8.96811C40.3683 8.60624 40.9762 8.35661 41.6945 8.21921C42.6379 8.03876 43.4658 8.09709 44.1783 8.39419C44.8995 8.67853 45.4854 9.12763 45.9362 9.7415C46.385 10.3446 46.6832 11.0322 46.8308 11.804L46.9846 12.6081L39.2499 14.0876L38.9884 12.7207L45.3242 11.5088L44.7619 12.3165C44.6553 11.759 44.4836 11.2973 44.2469 10.9314C44.0102 10.5655 43.7052 10.3072 43.3319 10.1563C42.9693 10.0034 42.5414 9.97415 42.0482 10.0685C41.5551 10.1628 41.1585 10.3554 40.8586 10.6461C40.5586 10.9368 40.3585 11.3141 40.2582 11.7777C40.1667 12.2286 40.1773 12.7489 40.2901 13.3385C40.3947 13.8853 40.5737 14.3566 40.8273 14.7526C41.0788 15.1379 41.405 15.42 41.8059 15.5989C42.2048 15.7671 42.6776 15.7989 43.2244 15.6943C43.7711 15.5897 44.1955 15.3974 44.4976 15.1174C44.7975 14.8267 44.965 14.5112 45 14.1712L47.0583 13.7775C47.0445 14.4024 46.8984 14.9749 46.62 15.4948C46.3417 16.0148 45.942 16.4524 45.421 16.8077C44.9107 17.1609 44.2964 17.4062 43.5781 17.5436Z" fill="#282828"/>
<path d="M63.7351 20.0066L64.7518 17.5746L64.4044 17.4294L65.5349 14.7256C65.7327 14.2523 65.7643 13.8514 65.6295 13.5229C65.4947 13.1945 65.1857 12.9292 64.7023 12.7271C64.4505 12.6219 64.1463 12.5006 63.7897 12.3633C63.433 12.2261 63.0692 12.0917 62.6983 11.9603C62.3416 11.823 62.0181 11.7055 61.7277 11.6077L62.4729 9.82532C62.7129 9.90202 62.9832 9.99134 63.2836 10.0933C63.5841 10.1953 63.8853 10.3094 64.1875 10.4357C64.5038 10.5561 64.798 10.6732 65.0699 10.7869C65.9157 11.1405 66.5693 11.5439 67.0305 11.997C67.5018 12.4543 67.7795 12.9786 67.8636 13.5697C67.9578 14.1651 67.8449 14.8455 67.5249 15.6108L65.3967 20.7012L63.7351 20.0066ZM61.0033 19.1129C60.4091 18.8645 59.9297 18.5398 59.565 18.1389C59.2103 17.7421 58.9892 17.2948 58.9016 16.7968C58.8241 16.303 58.9012 15.7792 59.1327 15.2254C59.3853 14.6212 59.7377 14.1888 60.1897 13.9282C60.6518 13.6718 61.1897 13.5596 61.8034 13.5914C62.4272 13.6274 63.1016 13.797 63.8266 14.1001L65.7299 14.8958L65.2057 16.1495L63.2722 15.3412C62.7889 15.1391 62.3658 15.1042 62.0029 15.2364C61.6543 15.3627 61.4021 15.6122 61.2463 15.9848C61.0906 16.3574 61.0901 16.7121 61.2451 17.049C61.4101 17.3901 61.7342 17.6617 62.2176 17.8637C62.5096 17.9858 62.7975 18.0471 63.0813 18.0474C63.3794 18.0419 63.6616 17.9469 63.928 17.7625C64.2086 17.5723 64.4517 17.2598 64.657 16.8252L64.9243 17.629C64.634 18.1819 64.2909 18.6064 63.8951 18.9023C63.5094 19.2024 63.0709 19.374 62.5797 19.417C62.1027 19.4542 61.5773 19.3528 61.0033 19.1129Z" fill="#282828"/>
<path d="M72.733 27.0436C72.2101 26.5325 71.8564 25.973 71.6719 25.3654C71.4951 24.7499 71.5033 24.1169 71.6966 23.4664C71.8899 22.8158 72.2723 22.1747 72.844 21.543L73.0899 21.7833L70.4921 24.4411L69.2042 23.1822L77.5584 14.6353L79.1858 16.2261L75.0087 20.4995L73.9232 20.7434C74.5953 20.1183 75.2581 19.6978 75.9117 19.4819C76.5731 19.2737 77.2058 19.2511 77.8097 19.414C78.4136 19.5769 78.9614 19.8987 79.4531 20.3794C79.8902 20.8066 80.2082 21.2777 80.407 21.7925C80.6059 22.3074 80.6891 22.839 80.6568 23.3874C80.6321 23.928 80.4953 24.4582 80.2465 24.9782C80.0055 25.5058 79.66 25.9999 79.2099 26.4604L78.9695 26.7063C78.5194 27.1668 78.0295 27.5274 77.4999 27.7881C76.9703 28.0489 76.4241 28.2018 75.8611 28.2468C75.3058 28.284 74.7569 28.2053 74.2144 28.0108C73.6874 27.8162 73.1936 27.4938 72.733 27.0436ZM73.7091 25.319C74.0603 25.6623 74.4486 25.874 74.8741 25.9541C75.3149 26.034 75.7583 25.9942 76.2041 25.8347C76.65 25.6753 77.0675 25.3965 77.4566 24.9984C77.8533 24.5926 78.1225 24.1688 78.2641 23.7273C78.4057 23.2857 78.4239 22.8533 78.3188 22.43C78.2214 22.0143 77.9971 21.6348 77.6458 21.2914C77.3258 20.9786 76.9606 20.759 76.55 20.6324C76.1473 20.5135 75.7266 20.5067 75.2879 20.6121C74.8569 20.7251 74.4545 20.9728 74.0807 21.3552L73.6229 21.8236C73.2643 22.1904 73.045 22.5865 72.965 23.012C72.8849 23.4374 72.9128 23.8539 73.0487 24.2614C73.1845 24.6689 73.4047 25.0215 73.7091 25.319Z" fill="#282828"/>
<path d="M79.1041 36.9342C78.791 36.2134 78.63 35.5277 78.621 34.877C78.6121 34.2264 78.7202 33.6261 78.9454 33.0761C79.1806 32.5217 79.505 32.0357 79.9186 31.618C80.3365 31.2104 80.8158 30.8891 81.3564 30.6543L81.6717 30.5173C82.2323 30.2738 82.8064 30.1434 83.3939 30.1262C83.9958 30.1147 84.5746 30.2143 85.1303 30.4251C85.7003 30.6416 86.2151 30.9773 86.6745 31.4323C87.1439 31.8828 87.5286 32.4535 87.8287 33.1443C88.1288 33.835 88.2833 34.5057 88.2922 35.1564C88.3111 35.8026 88.203 36.403 87.9678 36.9573C87.747 37.5174 87.4248 38.0084 87.0012 38.4304C86.5876 38.848 86.1005 39.1786 85.5399 39.4222L85.2245 39.5591C84.6839 39.794 84.1199 39.92 83.5323 39.9372C82.9492 39.9644 82.3747 39.8748 81.809 39.6683C81.2534 39.4575 80.7408 39.1268 80.2714 38.6762C79.8019 38.2256 79.4128 37.6449 79.1041 36.9342ZM80.8911 36.1579C81.1128 36.6685 81.41 37.0511 81.7824 37.3058C82.1649 37.5562 82.5854 37.6889 83.0441 37.7038C83.5128 37.7144 83.9925 37.6132 84.483 37.4001C84.9836 37.1827 85.3827 36.8962 85.6805 36.5407C85.9927 36.1909 86.1806 35.788 86.2443 35.3319C86.3223 34.8815 86.2548 34.4111 86.0417 33.9205C85.8287 33.43 85.5287 33.0545 85.1419 32.7941C84.7695 32.5394 84.3467 32.4018 83.8736 32.3812C83.4106 32.3562 82.9288 32.4524 82.4283 32.6699C81.9377 32.883 81.5364 33.1644 81.2242 33.5142C80.9264 33.8697 80.7385 34.2726 80.6604 34.723C80.5924 35.169 80.6693 35.6474 80.8911 36.1579Z" fill="#282828"/>
<path d="M81.531 47.5423C81.4984 46.5168 81.8112 45.7097 82.4696 45.1209C83.1283 44.543 84.1231 44.2329 85.454 44.1906L90.6086 44.0266L90.6809 46.3012L85.33 46.4714C84.7845 46.4887 84.353 46.6553 84.0354 46.9712C83.7288 47.2867 83.5838 47.7063 83.6004 48.23C83.6171 48.7536 83.7997 49.1737 84.1483 49.4902C84.4973 49.8176 84.9608 49.9722 85.539 49.9538L90.7918 49.7867L90.8642 52.0613L81.9622 52.3444L81.905 50.5444L85.685 50.4241L85.6907 50.6042C84.7962 50.6326 84.0453 50.5418 83.438 50.3318C82.8307 50.1218 82.367 49.7926 82.047 49.3441C81.7269 48.8956 81.556 48.3277 81.5341 47.6405L81.531 47.5423Z" fill="#282828"/>
<path d="M79.7695 60.513C80.0053 59.7291 80.2996 59.1109 80.6522 58.6585C81.0122 58.2197 81.4703 57.9471 82.0265 57.8409C82.5932 57.7378 83.2894 57.8105 84.1152 58.0589L91.8241 60.3949L91.211 62.4331L83.361 60.0546C82.9429 59.9288 82.5858 59.9411 82.2899 60.0914C82.0012 60.2554 81.794 60.5464 81.6682 60.9644L81.2673 62.2971L79.4016 61.7359L79.7695 60.513ZM88.2365 57.8283L89.8357 58.3094L88.0246 64.3298L86.4255 63.8487L88.2365 57.8283Z" fill="#282828"/>
<path d="M74.2907 70.9542L79.7875 77.9412L78.3721 79.0548L76.0134 76.0567L76.1421 75.9554C76.6955 76.6589 77.0677 77.3173 77.2587 77.9309C77.4565 78.553 77.4741 79.1225 77.3113 79.6393C77.1467 80.1716 76.7985 80.6469 76.2667 81.0653L76.1895 81.126C75.649 81.5512 75.1051 81.7778 74.5577 81.8057C74.0084 81.8489 73.4591 81.6979 72.9096 81.3525C72.3582 81.0224 71.8059 80.5056 71.2525 79.8022L71.7028 79.4479C72.2562 80.1513 72.6285 80.8098 72.8195 81.4233C73.0087 82.0522 73.0219 82.625 72.8592 83.1419C72.6946 83.6741 72.3464 84.1495 71.8145 84.5679L71.7373 84.6286C71.1969 85.0538 70.6487 85.2837 70.0927 85.3184C69.5434 85.3617 68.9898 85.2139 68.4317 84.8753C67.8718 84.552 67.3152 84.0386 66.7618 83.3352L63.6236 79.3463L65.4122 77.9392L68.6819 82.0953C69.0261 82.5328 69.411 82.7925 69.8365 82.8744C70.2687 82.9648 70.6907 82.8481 71.1025 82.5242C71.5142 82.2002 71.7365 81.8032 71.7693 81.3329C71.8089 80.8713 71.6498 80.4132 71.2921 79.9585L68.0629 75.8538L69.8514 74.4467L73.1212 78.6029C73.4654 79.0404 73.8502 79.3 74.2757 79.3819C74.708 79.4724 75.13 79.3556 75.5417 79.0317C75.9535 78.7078 76.1758 78.3107 76.2086 77.8405C76.2481 77.3788 76.0891 76.9207 75.7314 76.466L72.5021 72.3613L74.2907 70.9542Z" fill="#282828"/>
<path d="M55.9708 80.7302C56.717 80.566 57.4007 80.5497 58.022 80.6812C58.6326 80.815 59.1713 81.0541 59.6382 81.3984C60.0968 81.7557 60.4807 82.1797 60.7899 82.6705C61.0884 83.1636 61.2986 83.6873 61.4206 84.2416L61.4874 84.5454C61.6141 85.1211 61.6455 85.6953 61.5815 86.2682C61.5093 86.854 61.3377 87.3947 61.0667 87.8902C60.7875 88.3987 60.403 88.8353 59.9133 89.2001C59.4259 89.5756 58.8251 89.8419 58.1109 89.999C57.1729 90.2055 56.3437 90.17 55.6232 89.8927C54.8945 89.6283 54.2964 89.1956 53.8288 88.5944C53.3636 88.0038 53.0466 87.3248 52.8777 86.5573L52.7017 85.7578L60.3927 84.0655L60.6918 85.4246L54.3919 86.8108L54.9317 85.988C55.0537 86.5423 55.238 86.9991 55.4847 87.3583C55.7314 87.7175 56.0434 87.9674 56.4207 88.1078C56.7874 88.2507 57.216 88.2681 57.7063 88.1602C58.1967 88.0523 58.5878 87.8489 58.8796 87.55C59.1715 87.2511 59.3611 86.8685 59.4485 86.4022C59.5276 85.949 59.5026 85.4292 59.3736 84.8429C59.254 84.2993 59.062 83.833 58.7976 83.4442C58.5355 83.066 58.2017 82.793 57.796 82.6252C57.3926 82.4681 56.9191 82.4494 56.3754 82.569C55.8318 82.6886 55.4128 82.8926 55.1186 83.1808C54.8268 83.4797 54.6681 83.7996 54.6425 84.1405L52.5958 84.5909C52.5924 83.9658 52.7226 83.3895 52.9866 82.8621C53.2505 82.3346 53.6379 81.8861 54.149 81.5166C54.6493 81.1495 55.2566 80.8873 55.9708 80.7302Z" fill="#282828"/>
</svg>
