<svg width="129" height="78" viewBox="0 0 129 78" fill="none" xmlns="http://www.w3.org/2000/svg">
<path d="M64.004 0.60199C46.937 0.60199 36.274 9.13199 32.004 26.199C38.402 17.668 45.871 14.469 54.402 16.602C59.273 17.816 62.754 21.348 66.609 25.262C72.883 31.629 80.145 39 96.004 39C113.07 39 123.734 30.469 128.004 13.398C121.605 21.934 114.137 25.133 105.605 23C100.735 21.785 97.258 18.254 93.398 14.34C87.128 7.97299 79.868 0.60199 64.004 0.60199V0.60199ZM32.004 39C14.938 39 4.274 47.531 0.0039978 64.602C6.402 56.066 13.87 52.867 22.402 55C27.273 56.215 30.754 59.746 34.609 63.66C40.883 70.027 48.145 77.398 64.004 77.398C81.07 77.398 91.734 68.868 96.004 51.801C89.605 60.332 82.137 63.531 73.605 61.398C68.735 60.184 65.258 56.652 61.398 52.738C55.128 46.371 47.868 39 32.004 39Z" fill="#38B2AC"/>
</svg>
