<svg width="243" height="89" viewBox="0 0 243 89" fill="none" xmlns="http://www.w3.org/2000/svg">
<path d="M242.166 30.0861C242.428 28.8096 241.606 27.5627 240.329 27.3009C239.053 27.0392 237.806 27.8619 237.544 29.1384L242.166 30.0861ZM237.55 40.8554L237.387 43.2092C238.567 43.2906 239.624 42.4871 239.861 41.3293L237.55 40.8554ZM224.694 37.6025C223.394 37.5127 222.268 38.4937 222.178 39.7936C222.088 41.0936 223.069 42.2202 224.369 42.31L224.694 37.6025ZM164.548 24.2482C163.498 25.02 163.273 26.4967 164.045 27.5466C164.816 28.5966 166.293 28.8221 167.343 28.0503L164.548 24.2482ZM237.544 29.1384L235.239 40.3815L239.861 41.3293L242.166 30.0861L237.544 29.1384ZM237.713 38.5017L224.694 37.6025L224.369 42.31L237.387 43.2092L237.713 38.5017ZM237.55 40.8554C239.616 39.7167 239.616 39.7158 239.615 39.7148C239.615 39.7144 239.615 39.7133 239.614 39.7124C239.613 39.7107 239.612 39.7088 239.611 39.7066C239.608 39.7022 239.605 39.6968 239.602 39.6904C239.595 39.6775 239.585 39.6607 239.573 39.6399C239.55 39.5985 239.517 39.5413 239.474 39.4694C239.39 39.3257 239.268 39.1228 239.107 38.8676C238.785 38.3574 238.308 37.6375 237.669 36.763C236.391 35.0151 234.459 32.643 231.809 30.0928C226.508 24.9909 218.314 19.1571 206.752 16.2197L205.59 20.7932C216.195 23.4873 223.69 28.828 228.537 33.4927C230.961 35.8259 232.717 37.9851 233.86 39.5477C234.43 40.3285 234.847 40.9585 235.115 41.3846C235.249 41.5975 235.347 41.7593 235.408 41.8632C235.438 41.9151 235.46 41.9525 235.473 41.9746C235.479 41.9857 235.483 41.9929 235.485 41.9962C235.486 41.9978 235.486 41.9985 235.486 41.9981C235.486 41.998 235.486 41.9976 235.485 41.9969C235.485 41.9965 235.485 41.9958 235.484 41.9957C235.484 41.9949 235.484 41.9941 237.55 40.8554ZM206.752 16.2197C195.078 13.2537 184.524 15.2767 176.949 17.9953C173.156 19.3565 170.083 20.9012 167.95 22.1108C166.882 22.7162 166.047 23.2394 165.472 23.6165C165.184 23.8051 164.961 23.9573 164.806 24.0652C164.728 24.1192 164.668 24.1621 164.625 24.1929C164.603 24.2083 164.586 24.2207 164.573 24.23C164.567 24.2346 164.562 24.2384 164.557 24.2415C164.555 24.243 164.554 24.2443 164.552 24.2455C164.551 24.246 164.55 24.2467 164.55 24.247C164.549 24.2476 164.548 24.2482 165.946 26.1493C167.343 28.0503 167.342 28.0508 167.342 28.0513C167.342 28.0513 167.341 28.0517 167.341 28.0519C167.34 28.0522 167.34 28.0523 167.34 28.0522C167.341 28.0521 167.342 28.0511 167.344 28.0494C167.349 28.0459 167.358 28.0394 167.371 28.0299C167.398 28.0108 167.442 27.9798 167.502 27.9379C167.622 27.8541 167.809 27.7267 168.058 27.5633C168.557 27.2364 169.306 26.7666 170.278 26.2155C172.223 25.1121 175.05 23.6902 178.543 22.4367C185.539 19.926 195.098 18.1275 205.59 20.7932L206.752 16.2197Z" fill="#FAFAFA"/>
<path d="M13.0076 71.0202C12.2 68.1549 11.4921 65.7118 10.8839 63.6908C10.2923 61.6411 9.78783 59.9199 9.37036 58.5273C8.95288 57.1346 8.60212 56.0395 8.31806 55.2419C8.05065 54.4156 7.83959 53.7563 7.68488 53.2638C7.53017 52.7714 7.41447 52.4263 7.33779 52.2284C7.25511 52.0078 7.18676 51.7956 7.13274 51.5917C7.03069 51.2065 7.08095 50.9386 7.28349 50.788C7.48004 50.6147 7.74823 50.483 8.08807 50.393C8.47322 50.2909 8.78875 50.2922 9.03467 50.3967C9.29724 50.4727 9.50957 50.8165 9.67164 51.4282L15.1614 69.5403C15.1841 69.5343 15.2913 69.4817 15.4832 69.3823C15.6751 69.283 15.895 69.152 16.1429 68.9893C16.3907 68.8267 16.6499 68.661 16.9204 68.4924C17.1849 68.3011 17.3958 68.1361 17.553 67.9974C17.7949 67.8121 18.1547 67.5228 18.6324 67.1296C19.1101 66.7363 19.6468 66.291 20.2424 65.7938C20.8381 65.2965 21.4647 64.7789 22.1223 64.241C22.7965 63.6744 23.4345 63.1538 24.0361 62.6792C24.6544 62.176 25.1911 61.7307 25.6462 61.3434C26.1179 60.9275 26.4746 60.6269 26.7165 60.4416L27.1243 60.3335C27.2602 60.2975 27.3992 60.2728 27.5411 60.2595C27.6831 60.2461 27.8113 60.2727 27.926 60.3393C28.0406 60.4059 28.1333 60.5269 28.2039 60.7021C28.264 60.9287 28.2697 61.1333 28.2211 61.3159C28.1951 61.4925 28.1412 61.7007 28.0593 61.9406C26.7886 62.544 25.5946 63.3453 24.4773 64.3444C23.3827 65.3376 22.294 66.3534 21.2114 67.3919C20.1514 68.4244 19.0477 69.3835 17.9004 70.2694C16.7757 71.1493 15.5451 71.7663 14.2084 72.1205C13.642 72.2705 13.2417 71.9038 13.0076 71.0202ZM30.3089 59.9989C30.2016 60.0516 30.0407 60.1306 29.8262 60.2359C29.6116 60.3413 29.3767 60.4156 29.1215 60.459C28.8663 60.5024 28.633 60.4914 28.4218 60.4262C28.1879 60.3669 28.0349 60.2014 27.9629 59.9295C27.9208 59.7709 27.9248 59.6486 27.9748 59.5626C28.0247 59.4767 28.111 59.3447 28.2336 59.1668C28.624 58.6269 28.905 57.9948 29.0768 57.2704C29.2652 56.5173 29.4106 55.7393 29.5131 54.9362C29.6095 54.1106 29.7203 53.2932 29.8454 52.4842C29.9872 51.6465 30.1952 50.8761 30.4696 50.173C30.744 49.4699 31.1504 48.8531 31.6887 48.3225C32.227 47.792 32.9636 47.415 33.8985 47.1915C34.2837 47.0895 34.7381 47.066 35.2619 47.1212C35.7857 47.1764 36.2935 47.3086 36.7854 47.5177C37.2712 47.7042 37.7071 47.9767 38.093 48.3351C38.4789 48.6935 38.7409 49.1333 38.879 49.6544C39.0403 49.8056 38.996 50.0961 38.7462 50.526C38.5191 50.9499 38.1763 51.4408 37.718 51.9986C37.2536 52.5338 36.716 53.1127 36.1051 53.7353C35.5108 54.3292 34.9331 54.8944 34.3722 55.4309C33.8112 55.9675 33.3175 56.4378 32.8911 56.8417C32.4647 57.2456 32.1902 57.5366 32.0676 57.7145C32.0144 57.9711 31.9928 58.2556 32.0029 58.5682C32.0129 58.8807 32.0313 59.1789 32.058 59.4628C32.1014 59.718 32.1418 59.9619 32.1792 60.1944C32.2332 60.3983 32.2752 60.5569 32.3052 60.6702C32.4193 61.1007 32.5227 61.5824 32.6154 62.1155C32.7308 62.6426 32.8855 63.135 33.0795 63.5928C33.2902 64.0219 33.5848 64.356 33.9634 64.5952C34.336 64.8117 34.8734 64.8269 35.5757 64.6408C36.3234 64.4427 36.9777 64.0754 37.5387 63.5388C38.0936 62.9796 38.5823 62.3531 39.0046 61.6593C39.427 60.9655 39.7806 60.2414 40.0657 59.487C40.3734 58.7265 40.6364 58.0265 40.8549 57.3867C41.09 56.7182 41.3067 56.1637 41.5052 55.7232C41.7037 55.2827 41.9049 55.0354 42.1088 54.9814C42.3354 54.9214 42.5853 54.9037 42.8585 54.9283C43.1484 54.9242 43.3323 55.0694 43.4104 55.3639C43.5184 55.7717 43.4775 56.3039 43.2878 56.9603C43.1206 57.6107 42.8493 58.3252 42.4736 59.1036C42.1206 59.876 41.6769 60.6724 41.1427 61.4929C40.6251 62.2847 40.0811 63.0228 39.5109 63.7073C38.9346 64.3692 38.3486 64.9487 37.753 65.446C37.1514 65.9206 36.59 66.2269 36.0689 66.365C35.0494 66.6351 34.2131 66.59 33.5599 66.2296C32.9068 65.8692 32.3679 65.3452 31.9433 64.6576C31.5413 63.964 31.2179 63.2011 30.9731 62.3688C30.7451 61.5079 30.5236 60.7179 30.3089 59.9989ZM34.1309 49.1666C33.7457 49.2687 33.3889 49.5693 33.0605 50.0685C32.7261 50.545 32.4383 51.1062 32.1973 51.752C31.9728 52.3691 31.811 52.9939 31.7119 53.6263C31.6294 54.2301 31.6362 54.7132 31.7322 55.0757C32.072 54.9856 32.5261 54.732 33.0944 54.3147C33.6794 53.8688 34.2381 53.3692 34.7704 52.816C35.3027 52.2627 35.7497 51.7079 36.1115 51.1514C36.4732 50.5948 36.603 50.124 36.501 49.7389C36.447 49.535 36.3227 49.386 36.128 49.2921C35.9334 49.1982 35.7109 49.136 35.4603 49.1054C35.2324 49.0688 34.9991 49.0578 34.7606 49.0725C34.522 49.0872 34.3121 49.1186 34.1309 49.1666ZM44.4154 48.5876C44.2189 48.7609 44.0366 48.9425 43.8688 49.1325C43.7175 49.2938 43.5663 49.4551 43.4151 49.6164C43.2578 49.755 43.0946 49.871 42.9253 49.9643C42.7561 50.0577 42.5635 50.1087 42.3476 50.1174C42.2117 50.1534 42.0774 50.1041 41.9448 49.9695C41.8061 49.8123 41.6871 49.6377 41.5878 49.4458C41.4598 49.2373 41.3575 49.0341 41.2808 48.8362C41.1981 48.6156 41.1531 48.4457 41.1457 48.3264L43.9129 45.5929L41.8119 36.8391C41.7791 36.5326 41.9304 36.3713 42.2656 36.3552C42.5948 36.3165 42.9413 36.2974 43.3051 36.298C43.3504 36.286 43.4244 36.2906 43.527 36.3119C43.6463 36.3046 43.7316 36.3062 43.7829 36.3169C43.8997 36.9406 44.0201 37.6239 44.1442 38.3669C44.285 39.0813 44.4288 39.8069 44.5755 40.5439C44.7163 41.2582 44.8654 41.9582 45.0228 42.6439C45.2029 43.3236 45.399 43.9263 45.611 44.452L50.3304 41.6741C50.415 41.6275 50.501 41.6774 50.5883 41.824C50.6923 41.9419 50.7939 42.0969 50.8933 42.2888C51.0153 42.4746 51.1146 42.6665 51.1913 42.8644C51.268 43.0623 51.3063 43.1613 51.3063 43.1613L46.1773 47.1388C46.2314 47.3427 46.3718 47.8268 46.5985 48.5911C46.8479 49.3494 47.1363 50.2549 47.4637 51.3077C47.7852 52.3379 48.1306 53.4587 48.5001 54.6701C48.8635 55.8588 49.2059 56.9683 49.5274 57.9985C49.8488 59.0286 50.1259 59.9372 50.3586 60.7241C50.5854 61.4884 50.7258 61.9725 50.7798 62.1764C50.9146 62.8681 50.8007 63.262 50.4382 63.358C50.0984 63.448 49.6795 63.3772 49.1817 63.1454L44.4154 48.5876ZM52.0583 40.2344C51.4106 40.2605 51.0077 40.1126 50.8497 39.7908C50.7144 39.463 50.7369 39.0448 50.9174 38.5363C51.0919 38.0052 51.3736 37.4214 51.7627 36.7849C52.1457 36.1257 52.5347 35.4892 52.9298 34.8754C53.3149 34.7734 53.6025 34.8063 53.7924 34.9742C53.9824 35.1421 54.1134 35.3619 54.1854 35.6338L54.2484 35.8717C54.2751 36.1556 54.2172 36.4861 54.0747 36.8633C53.9322 37.2405 53.7444 37.6297 53.5112 38.031C53.2781 38.4322 53.0193 38.8281 52.7348 39.2186C52.473 39.6032 52.2475 39.9418 52.0583 40.2344ZM64.6411 58.213C64.6471 58.2356 64.849 58.0367 65.2467 57.6161C65.6671 57.1895 66.1428 56.6513 66.6737 56.0015C67.2213 55.3229 67.7713 54.6075 68.3236 53.855C68.8698 53.0799 69.3005 52.3717 69.6155 51.7306C69.9306 51.0895 70.0514 50.5846 69.978 50.2161C69.9213 49.819 69.5494 49.6508 68.8624 49.7116C68.0168 49.8144 67.3288 50.0088 66.7984 50.2948C66.2907 50.5748 65.8343 50.8655 65.4292 51.1668C65.0241 51.4681 64.6386 51.752 64.2728 52.0187C63.9297 52.2793 63.5143 52.45 63.0265 52.5307C62.0296 52.7948 61.2576 52.6721 60.7104 52.1624C60.1798 51.6241 59.7735 50.8225 59.4913 49.7577C59.2092 48.6929 59.18 47.6217 59.4037 46.5441C59.6213 45.4438 60.0109 44.4435 60.5725 43.5431C61.1341 42.6426 61.8479 41.8595 62.7141 41.1936C63.5742 40.505 64.514 40.0256 65.5336 39.7555C65.9414 39.6475 66.3015 39.5884 66.6141 39.5784C66.9266 39.5683 67.1429 39.7898 67.2629 40.2429C67.347 40.5601 67.2921 40.902 67.0982 41.2685C66.8984 41.6124 66.6286 41.8294 66.2887 41.9195C66.2661 41.9255 66.2064 41.9291 66.1098 41.9305C66.0072 41.9092 65.9015 41.8766 65.7929 41.8326C65.6843 41.7886 65.5817 41.7673 65.485 41.7687C65.3824 41.7474 65.3198 41.7397 65.2971 41.7457C64.5181 41.7339 63.8428 42.022 63.2712 42.6098C62.6995 43.1977 62.2349 43.9149 61.8772 44.7612C61.5362 45.579 61.3152 46.4377 61.2141 47.3373C61.107 48.2143 61.1375 48.97 61.3055 49.6043C61.3716 49.8536 61.4709 50.0455 61.6036 50.18C61.7528 50.286 61.9158 50.3519 62.0924 50.3778C62.2916 50.3978 62.4962 50.3921 62.7061 50.3607C62.9327 50.3007 63.1592 50.2407 63.3858 50.1806C63.8389 50.0606 64.274 49.8726 64.6911 49.6166C65.1309 49.3546 65.542 49.0759 65.9244 48.7807C66.3295 48.4794 66.7406 48.2007 67.1577 47.9447C67.5975 47.6827 68.0666 47.4857 68.565 47.3537C68.7916 47.2936 69.0588 47.2956 69.3667 47.3595C69.6685 47.4007 69.9658 47.5159 70.2584 47.7051C70.5449 47.8717 70.8096 48.0925 71.0522 48.3677C71.2888 48.6202 71.4665 48.9247 71.5852 49.2812C71.8051 49.5623 71.8709 49.9935 71.7824 50.5746C71.7165 51.1497 71.5464 51.7888 71.272 52.4919C70.9976 53.195 70.6356 53.9334 70.186 54.7072C69.7303 55.4583 69.2627 56.1641 68.783 56.8246C68.2974 57.4625 67.799 58.0067 67.288 58.4573C66.783 58.9305 66.3236 59.2099 65.9098 59.2952C65.4567 59.4153 65.1488 59.3514 64.9861 59.1035C64.8461 58.8497 64.7311 58.5528 64.6411 58.213ZM87.5747 37.1527C87.3782 37.326 87.196 37.5076 87.0281 37.6976C86.8768 37.8589 86.7256 38.0202 86.5744 38.1815C86.4171 38.3201 86.2539 38.4361 86.0847 38.5294C85.9154 38.6228 85.7228 38.6738 85.5069 38.6825C85.371 38.7185 85.2367 38.6692 85.1041 38.5346C84.9654 38.3774 84.8464 38.2028 84.7471 38.0109C84.6191 37.8024 84.5168 37.5992 84.4401 37.4013C84.3574 37.1807 84.3124 37.0108 84.305 36.8915L87.0723 34.158L84.9712 25.4042C84.9385 25.0977 85.0897 24.9364 85.4249 24.9203C85.7541 24.8816 86.1006 24.8625 86.4644 24.8631C86.5097 24.8511 86.5837 24.8557 86.6863 24.877C86.8056 24.8697 86.8909 24.8713 86.9422 24.882C87.059 25.5057 87.1794 26.189 87.3035 26.932C87.4443 27.6464 87.5881 28.372 87.7348 29.109C87.8756 29.8234 88.0247 30.5234 88.1821 31.209C88.3622 31.8887 88.5583 32.4914 88.7703 33.0171L93.4897 30.2392C93.5743 30.1926 93.6603 30.2425 93.7476 30.3891C93.8516 30.5071 93.9533 30.662 94.0526 30.8539C94.1746 31.0398 94.2739 31.2317 94.3506 31.4296C94.4273 31.6275 94.4656 31.7264 94.4656 31.7264L89.3367 35.7039C89.3907 35.9078 89.5311 36.3919 89.7578 37.1562C90.0072 37.9145 90.2956 38.82 90.6231 39.8728C90.9445 40.903 91.2899 42.0238 91.6594 43.2352C92.0228 44.424 92.3653 45.5334 92.6867 46.5636C93.0081 47.5937 93.2852 48.5023 93.518 49.2892C93.7447 50.0535 93.8851 50.5376 93.9391 50.7415C94.0739 51.4332 93.96 51.8271 93.5975 51.9231C93.2577 52.0132 92.8388 51.9423 92.341 51.7105L87.5747 37.1527ZM109.265 45.9901C108.995 45.4311 108.707 44.7557 108.401 43.9641C108.11 43.1439 107.809 42.3266 107.496 41.5124C107.178 40.6755 106.851 39.9012 106.517 39.1896C106.206 38.4719 105.863 37.9082 105.487 37.4985C104.956 40.1608 104.429 42.2887 103.905 43.8822C103.376 45.453 102.849 46.6229 102.326 47.3921C101.819 48.1325 101.336 48.5515 100.877 48.6489C100.418 48.7463 99.9898 48.6414 99.5932 48.3343C99.1966 48.0272 98.8523 47.5971 98.5603 47.0441C98.285 46.4624 98.0556 45.917 97.8723 45.4079C97.7402 44.9095 97.6674 44.1771 97.6538 43.2109C97.6403 42.2446 97.685 41.178 97.7881 40.0112C97.8851 38.8217 98.0471 37.6028 98.274 36.3546C98.5237 35.1004 98.8343 33.9392 99.2059 32.8709C99.5775 31.8026 100.014 30.8868 100.515 30.1237C101.016 29.3606 101.595 28.892 102.252 28.7179C103.184 28.3012 103.955 28.3274 104.564 28.7964C105.19 29.2367 105.535 30.1756 105.601 31.613C105.997 33.1082 106.393 34.3733 106.788 35.4081C107.206 36.4369 107.612 37.4204 108.006 38.3586C108.423 39.2908 108.829 40.2743 109.225 41.3091C109.643 42.3379 110.05 43.5999 110.446 45.0952C110.518 45.3671 110.547 45.614 110.533 45.8359C110.536 46.0291 110.288 46.1918 109.789 46.3238C109.721 46.3418 109.616 46.3092 109.473 46.2259C109.352 46.1367 109.283 46.0581 109.265 45.9901ZM103.405 31.2856C103.06 30.9891 102.711 31.0452 102.358 31.4537C102.006 31.8623 101.682 32.4695 101.386 33.2752C101.09 34.0809 100.819 35.0256 100.573 36.1092C100.327 37.1928 100.117 38.2787 99.945 39.367C99.7727 40.4552 99.645 41.4831 99.5619 42.4508C99.4728 43.3957 99.4466 44.1664 99.4834 44.7628C99.6995 45.5784 99.9472 46.0098 100.226 46.0571C100.5 46.0817 100.769 45.8647 101.036 45.4062C101.302 44.9477 101.572 44.3185 101.845 43.5188C102.141 42.7131 102.402 41.868 102.628 40.9837C102.877 40.0933 103.098 39.2346 103.291 38.4076C103.507 37.5746 103.668 36.9015 103.775 36.3884C103.853 35.8586 103.894 35.3748 103.899 34.9369C103.905 34.4991 103.893 34.09 103.865 33.7095C103.854 33.3003 103.797 32.9031 103.695 32.518C103.616 32.1268 103.519 31.716 103.405 31.2856ZM112.846 44.1321C112.728 43.0479 112.485 41.7182 112.116 40.1429C111.77 38.5616 111.351 36.8904 110.86 35.1293C110.392 33.3621 109.875 31.5474 109.309 29.6849C108.743 27.8225 108.181 26.068 107.623 24.4215C107.06 22.7523 106.522 21.2704 106.009 19.9757C105.519 18.6751 105.093 17.6606 104.73 16.9323C104.898 16.7424 105.041 16.5954 105.159 16.4914C105.293 16.3588 105.463 16.2654 105.666 16.2114C105.825 16.1694 105.97 16.1674 106.101 16.2053C106.227 16.2206 106.347 16.3099 106.463 16.4731C108.093 20.7936 109.584 25.1871 110.937 29.6536C112.313 34.1141 113.637 38.5639 114.911 43.0031C114.965 43.207 115.04 43.4902 115.136 43.8527C115.226 44.1925 115.262 44.3768 115.246 44.4054C114.971 44.648 114.708 44.8024 114.459 44.8684C114.204 44.9118 113.959 44.9038 113.725 44.8446C113.486 44.7627 113.288 44.6574 113.133 44.5288C112.977 44.4003 112.882 44.268 112.846 44.1321ZM111.453 18.4242C111.809 17.845 112.135 17.5647 112.431 17.5833C112.749 17.5959 113.046 17.8447 113.32 18.3298C113.594 18.8149 113.853 19.4735 114.098 20.3058C114.343 21.1381 114.583 22.0926 114.82 23.1694C115.074 24.2176 115.311 25.3427 115.533 26.5448C115.748 27.7243 115.972 28.8894 116.204 30.0402C116.43 31.1684 116.667 32.2452 116.915 33.2707C117.162 34.2962 117.43 35.1708 117.719 35.8944L117.821 35.8674C117.866 35.8554 117.897 35.8351 117.914 35.8064C118.78 34.3162 119.503 32.791 120.084 31.2309C120.664 29.6707 121.176 28.2139 121.617 26.8604C122.053 25.4842 122.44 24.2906 122.778 23.2796C123.139 22.2626 123.526 21.5295 123.941 21.0803C124.281 20.9902 124.579 20.9718 124.835 21.0251C125.115 21.0723 125.308 21.2999 125.416 21.7077C125.428 21.753 125.438 21.8353 125.445 21.9546C125.469 22.0452 125.487 22.1131 125.499 22.1585C125.239 23.464 124.925 24.7958 124.558 26.154C124.184 27.4895 123.745 28.8061 123.24 30.1036C122.735 31.4012 122.148 32.6601 121.477 33.8804C120.829 35.0947 120.077 36.2394 119.222 37.3145C119.228 37.3372 119.229 37.3855 119.225 37.4594C119.237 37.5047 119.246 37.5387 119.252 37.5614C119.312 37.7879 119.559 37.9891 119.993 38.165C120.451 38.3348 120.995 38.4693 121.628 38.5684C122.283 38.6616 122.995 38.7397 123.763 38.8029C124.554 38.86 125.313 38.8891 126.041 38.8903C126.791 38.8855 127.476 38.8617 128.095 38.8189C128.737 38.7701 129.228 38.7007 129.567 38.6106C129.591 38.7013 129.636 38.8712 129.702 39.1204C129.791 39.3636 129.849 39.6271 129.876 39.911C129.902 40.1949 129.889 40.4651 129.836 40.7217C129.777 40.9556 129.622 41.1056 129.373 41.1716L129.237 41.2076C129.192 41.2196 129.155 41.2173 129.126 41.2006L118.371 39.8676C118.703 41.2103 118.9 42.3218 118.964 43.2021C119.021 44.0597 118.988 44.7111 118.863 45.1563C118.768 45.6181 118.592 45.8707 118.337 45.9141C118.104 45.9515 117.852 45.8242 117.581 45.5324L111.453 18.4242Z" fill="white"/>
</svg>
